<?xml version="1.0" encoding="UTF-8"?><svg xmlns="http://www.w3.org/2000/svg" viewBox="0 0 83.49 83.49"><defs><style>.e{fill:#fff;}.f{fill:#c1d5d3;}.g{fill:#233d3d;}.h{fill:#82b8b5;}</style></defs><g id="a"/><g id="b"><g id="c"><circle class="e" cx="41.75" cy="41.75" r="41.75"/><g id="d"><g><path class="e" d="M69.95,46.35c0-.06-.04-.12-.02-.16,.05-.17,.1-.35,.16-.52,.87-2.51,1.06-5.1,.84-7.72-.16-1.89-.19-1.89,1.61-2.57,1.26-.48,2.53-.95,3.79-1.43l-.06-.18-5.59,1.78c-.25-1.2-.47-2.34-.71-3.47-.49-2.32-1.14-4.62-1.44-6.96-.54-4.13,.2-8.17,1.28-12.16,.05-.2,.09-.41,.15-.7-7.56,1.99-13.06,6.24-16.06,13.57-.47-.19-.91-.32-1.3-.55-.83-.48-1.69-.73-2.66-.63-.33,.04-.71-.06-1.03-.2-1.5-.65-3.05-.96-4.68-.73-.2,.03-.41,0-.62,0l-.05-.18,2.82-1.66c-1.8-.3-3.28,.41-4.86,.93,.77-.96,1.57-1.87,2.48-2.63,.91-.77,1.94-1.4,3.07-2.2-2.88,.5-5.34,1.46-7.31,3.41l.35-3c-.66,.87-1.09,1.78-1.6,2.64-.92,1.55-2.05,2.92-3.7,3.76-.58,.3-1.1,.33-1.73-.07-.68-.43-1.51-.64-2.27-.95l-.15,.26,1.16,1.33c-1.13,.08-1.11,.08-1.71-.67-.89-1.1-1.77-2.22-2.7-3.29-2.79-3.16-5.76-6.14-9.37-8.39-.68-.43-1.41-.77-2.26-1.23,.06,.29,.08,.39,.1,.48,.9,2.97,1.33,6.02,1.03,9.1-.28,2.89-.83,5.76-1.35,8.62-.7,3.87-1.32,7.73-.83,11.68,.04,.32,.07,.63,.11,1.01-3.81-.75-7.53-1.37-11.47-1.61,3.8,.73,7.41,1.44,11.03,2.12,.47,.09,.69,.29,.81,.76,.41,1.64,1.13,3.15,2.15,4.51,.07,.09,.11,.2,.21,.39-5.09,.09-10.06,.32-14.97,1.32,.23,.03,.46,.04,.69,.03,4.61-.25,9.22-.47,13.83-.76,1.04-.07,1.61,.43,2.15,1.13-3.83,5.6-6.91,11.04-6.97,12.37l3.34-2.2,.15,.11-3.18,5.82c.16-.07,.3-.12,.43-.18,3.5-1.49,7.14-2.24,10.88-1.31,2.67,.66,5.23,1.72,7.84,2.62,2.51,.87,5,1.77,7.51,2.63,.89,.31,1.83,.5,2.71,.83,2.91,1.06,6.78-.03,8.69-2.46,.18-.23,.43-.44,.68-.58,1.19-.66,2.45-1.22,3.6-1.95,3.75-2.38,7.45-4.82,11.18-7.23,1.54-1,3.22-1.64,5.05-1.83,1.22-.12,2.45-.14,3.76-.2-1.5-1.71-3.45-2.74-5.26-4.03l4.65,1.24,.2-.22c-.76-1.18-1.48-2.39-2.3-3.53-.84-1.15-1.79-2.23-2.69-3.34l.07-.22h8.91v-.21l-8.57-.36Z"/><path class="g" d="M69.95,46.35l8.57,.36v.21h-8.91l-.07,.22c.9,1.11,1.85,2.18,2.69,3.34,.83,1.13,1.54,2.35,2.3,3.53l-.2,.22-4.65-1.24c1.81,1.28,3.76,2.31,5.26,4.03-1.32,.07-2.55,.08-3.76,.2-1.83,.19-3.51,.83-5.05,1.83-3.73,2.41-7.43,4.85-11.18,7.23-1.15,.73-2.41,1.29-3.6,1.95-.26,.14-.5,.35-.68,.58-1.9,2.43-5.77,3.52-8.69,2.46-.89-.32-1.82-.52-2.71-.83-2.51-.86-5.01-1.76-7.51-2.63-2.61-.9-5.17-1.96-7.84-2.62-3.74-.93-7.38-.18-10.88,1.31-.13,.06-.27,.11-.43,.18l3.18-5.82-.15-.11-3.34,2.2c.06-1.33,3.14-6.77,6.97-12.37-.54-.7-1.11-1.2-2.15-1.13-4.61,.3-9.22,.52-13.83,.76-.23,.01-.46,0-.69-.03,4.91-1,9.88-1.23,14.97-1.32-.1-.19-.14-.3-.21-.39-1.03-1.36-1.74-2.87-2.15-4.51-.12-.47-.34-.67-.81-.76-3.62-.68-7.23-1.39-11.03-2.12,3.95,.24,7.67,.86,11.47,1.61-.04-.38-.07-.7-.11-1.01-.49-3.95,.13-7.81,.83-11.68,.52-2.86,1.07-5.73,1.35-8.62,.3-3.07-.13-6.13-1.03-9.1-.03-.09-.04-.19-.1-.48,.84,.46,1.57,.81,2.26,1.23,3.61,2.25,6.58,5.22,9.37,8.39,.94,1.06,1.81,2.18,2.7,3.29,.6,.74,.59,.75,1.71,.67l-1.16-1.33,.15-.26c.76,.31,1.59,.52,2.27,.95,.63,.4,1.15,.36,1.73,.07,1.65-.84,2.77-2.21,3.7-3.76,.51-.86,.94-1.77,1.6-2.64l-.35,3c1.97-1.95,4.43-2.91,7.31-3.41-1.14,.81-2.16,1.44-3.07,2.2-.91,.77-1.71,1.67-2.48,2.63,1.58-.52,3.05-1.24,4.86-.93l-2.82,1.66,.05,.18c.21,0,.41,.02,.62,0,1.64-.22,3.18,.09,4.68,.73,.32,.14,.69,.23,1.03,.2,.97-.1,1.83,.15,2.66,.63,.39,.22,.83,.35,1.3,.55,3-7.33,8.5-11.58,16.06-13.57-.06,.29-.09,.5-.15,.7-1.08,3.99-1.82,8.03-1.28,12.16,.31,2.34,.95,4.64,1.44,6.96,.24,1.13,.46,2.26,.71,3.47l5.59-1.78,.06,.18c-1.27,.47-2.53,.95-3.79,1.43-1.8,.68-1.77,.68-1.61,2.57,.22,2.62,.03,5.21-.84,7.72-.06,.17-.12,.34-.16,.52-.01,.04,.01,.1,.02,.16Zm-22.98,.49c-.98-.7-2.05-1.33-3.29-1.05-.87,.2-1.67,.71-2.57,1.11-2.55-1.84-5.03-.14-6.22,1.91l.41,.27-.04,.06-2.57-.85-.67,1.48,1.41,.24-.02,.11h-.98c1.64,1.37,3.23,2.51,5.24,2.75,.72,.09,1.62,.17,2.19-.16,1.28-.75,2.42-.61,3.78-.25,2.29,.6,5.07-1.34,5.43-3.61l-2.87,.49c.89-.39,1.81-.65,2.74-.84,.54-.11,.77-.44,.7-.92-.06-.49-.24-.97-.39-1.53l-3.11,1.78c.28-.36,.54-.69,.8-1.02,.1,.02,.22,.1,.28,.06,1.1-.66,2.47-1.11,2.4-2.92-.64,.46-1.3,.82-1.79,1.34-.4,.41-.59,1.02-.88,1.54ZM28.49,30.82c-1.05,2.19-.48,4.41-.2,6.66-.4-1.28-.74-2.56-.93-3.87-.2-1.42,.07-2.76,.91-3.97,.39-.57,.66-1.22,1.05-1.97l-1.44,.22c.14-.53,.35-.9,.63-1.22,.3-.35,.66-.64,1.03-.99-2.82-4.17-6.27-7.72-10.27-10.74,.02,.12,.08,.2,.15,.27,3.4,3.89,5.86,8.29,7.03,13.35,.44,1.89,.76,3.82,.15,5.73-.63,1.97-2.34,2.41-3.92,1.07-.22-.19-.43-.39-.71-.63-.28,1.34,.54,1.84,1.6,2.27-1.82,.51-2.46,1.07-2.56,2.11l1.61-.42,.11,.18c-.57,.79-1.16,1.57-1,2.69l2.41-2.22c-.02,.18-.04,.4-.06,.63-.11,1.39-.21,2.77-.34,4.16-.06,.57,.16,.83,.71,.97,.8,.2,1.58,.48,2.36,.74,1.7,.57,3.4,1.15,5.19,1.76,.21-1.14,.19-2.22-.25-3.23-.42-.96-.97-1.86-1.44-2.76,1.14,.74,1.96,1.81,2.46,3.39,.17,.54,.41,.85,1.06,.84-.08-.21-.13-.4-.22-.57-1.42-2.97-2.13-6.09-1.85-9.38,.09-1.08,.39-2.19,.82-3.19,.66-1.53,2.33-1.85,3.57-.73,.71,.65,1.31,1.43,1.96,2.15,.55-.8,1.23-.43,1.9-.02,.15-.86,.22-1.66,.44-2.41,.11-.38,.51-.68,.78-1.02,.33,.32,.79,.58,.95,.96,.34,.85,.52,1.76,.78,2.69,.57-.3,1.24-.81,1.78-.12,.38,.5,.51,1.19,.81,1.93,.34-.79,.69-1.5,.96-2.24,.58-1.63,1.04-3.3,1.68-4.9,.65-1.6,1.53-3.06,3.6-3.51-1.17-.47-2.12-.33-2.97,.21-.82,.52-1.55,1.17-2.33,1.76l-.14-.13,2.32-2.49c-2.05-.49-4.11-.62-6.22-.22l-.13-.19,.91-1.57-2.46,1.08c0-1.42,.83-2.34,1.54-3.32l-.15-.12-3.64,3.02v-.66c-.97,.82-2,1.68-3.03,2.56-.01,.01,0,.05-.01,.08l.45,.59-1.33-.3,1.58,2.81-.2,.11c-.35-.21-.69-.44-1.05-.64-1.9-1.07-3.41-.68-4.36,1.26-.49,1-.75,2.12-1.05,3.21-.18,.67-.22,1.38-.32,2.07h-.26l-.47-3.8Zm-8.94,30.42l.1,.19-4.57,3.29c.17,.13,.19,.17,.2,.16,.23-.04,.45-.09,.68-.14,3.85-.83,7.66-.99,11.4,.59,1.57,.66,3.16,1.26,4.76,1.85,1.51,.55,3.03,1.06,4.42,1.54-.9-1.42-1.87-2.84-2.74-4.32-2.11-3.57-4.16-7.18-6.28-10.76-.69-1.16-1.37-2.39-2.98-2.47,0,0-.01-.05-.04-.15,1.92-.12,3.86-.06,5.62-.99-2.69-.2-5.37-.29-8.05-.41-.55-.02-.92,.14-1.24,.6-1.3,1.89-2.67,3.73-3.94,5.65-1.06,1.6-2.01,3.27-3.01,4.91l.14,.13,2.67-1.73,.23,.14-1.67,4.1,4.28-2.18ZM54.73,28.74c.48,2.21,.52,5.52-.09,6.55-.05-.43-.05-.76-.13-1.08-.36-1.39-.61-2.83-1.16-4.14-.6-1.41-1.93-1.54-3.02-.48-.35,.34-.7,.7-.95,1.12-1.09,1.78-2.05,3.65-3.25,5.35-.96,1.36-.5,2.71-.58,4.14l1.46-1.42,.18,.16c-.8,1.3-1.97,2.48-1.54,4.28,.68-.63,1.26-1.33,1.87-2,.66-.72,1.25-1.53,2.03-2.1,1.14-.83,2.66-.09,2.83,1.25-1.19-.42-1.72-.24-2.76,.64-1.29,1.09-2.65,2.1-4.17,3.3-.14,.61-.04,1.41,1.11,1.74,.72-1.17,1.71-2.07,3.05-2.55,.34-.12,.68-.36,.94-.62,1.04-1.04,2.25-1.76,3.64-2.19-.7,.63-1.45,1.19-2.16,1.8-.71,.61-1.3,1.32-1.64,2.15,3.42-1.72,6.83-3.43,10.23-5.17,.16-.08,.27-.43,.25-.64-.11-1.1,.48-1.79,1.6-1.79,.3,0,.59,.05,1.01,.08-1.13-1.07-2.05-.29-3.05,.21l.82-2.44c-.28,.12-.42,.3-.57,.47-.42,.47-.91,.75-1.57,.59-.68-.16-1.06-.61-1.21-1.26-.08-.32-.11-.66-.13-.99-.09-2.26,.53-4.39,1.23-6.5,1.35-4.1,3.1-7.98,5.92-11.3,.42-.49,.86-.96,1.29-1.44-.32,.02-.56,.11-.78,.24-.65,.37-1.32,.72-1.95,1.12-4.03,2.55-6.98,6-8.66,10.49-.08,.2-.07,.55,.05,.69,.84,.92,1.17,2.07,1.38,3.23,.16,.93,.11,1.9,.16,2.86h-.23c-.39-1.49,.21-3.32-1.45-4.35Zm5.12,18.7c-.87,.23-1.76,.42-2.61,.71-1.24,.42-2.43,1.06-3.7,1.33-.97,.2-1.19,.67-1.32,1.5-.43,2.8-.85,5.61-1.4,8.39-.45,2.28-1.2,4.49-2.64,6.38-1.96,2.58-5.06,3.05-7.64,1.08-.81-.61-1.57-1.38-2.11-2.23-.96-1.52-1.83-3.11-2.58-4.75-1.2-2.6-2.27-5.25-3.42-7.87-.25-.57-.63-1.09-.98-1.67-1.49,1.21-3.16,1.25-4.81,1.2,.84,1.11,1.72,2.1,2.41,3.21,2,3.22,3.93,6.48,5.88,9.74,1.02,1.71,2.03,3.42,3.58,4.73,.22,.19,.49,.32,.74,.47l.05-.12-1.33-1.93,.21-.17c.07,.12,.13,.26,.22,.37,1.17,1.34,2.62,2.26,4.36,2.64,2.27,.5,4.47,.54,6.28-1.29,1.25-1.27,1.94-2.84,2.44-4.51,.18-.6,.32-1.21,.48-1.81l.23,.04-.41,4.36c.6-.61,1.19-.99,1.47-1.54,.82-1.57,1.6-3.18,2.26-4.82,1.75-4.32,2.33-9.03,4.35-13.45Zm-38.12-13.8c.69,.53,1.28,1.08,1.95,1.49,1.1,.67,1.87,.33,2.19-.93,.43-1.69,.24-3.39-.1-5.06-.96-4.66-3.25-8.66-6.13-12.36-.7-.9-1.46-1.76-2.31-2.76,.15,1.12,.32,2.03,.37,2.95,.31,4.89-.47,9.67-1.46,14.43-.67,3.23-.99,6.47-.56,9.76,.23,1.75,.25,1.73,1.94,2.14,1.74,.42,3.48,.89,5.23,1.33l.32-3.33c-.94,.2-.99,1.11-1.44,1.76-.83-1.1-.56-2.17-.14-3.43l-1.63,1.15c.15-1.65,.55-3,1.74-3.98-.61-1.1-.64-2.13,.02-3.16ZM68.88,13.33l-.15-.21c-.54,.44-1.16,.81-1.61,1.33-3.83,4.33-6.66,9.24-8.07,14.87-.37,1.5-.38,3.1-.47,4.66-.03,.55,.16,1.31,.8,1.31,.41,0,.91-.55,1.22-.97,.36-.5,.55-1.11,.85-1.75,.69,1.08,.4,2.17,.4,3.24,1.19,0,1.89,.69,2.52,1.51,.14,.18,.47,.4,.62,.34,1.69-.61,3.36-1.27,5.15-1.97-.44-1.77-.84-3.53-1.3-5.27-1.13-4.25-1.7-8.55-.95-12.93,.24-1.41,.66-2.79,.99-4.18Zm-14.57,52.07c.23-.08,.4-.11,.54-.19,1.22-.76,2.46-1.51,3.66-2.32,3.78-2.53,7.42-5.34,12.13-6.36h-4.5c1.97-.9,4.05-1.02,6.39-.75l-5.06-3.28,.1-.32c.92,.1,1.85,.16,2.77,.31,.95,.16,1.89,.43,2.83,.65l.19-.2c-1.55-1.91-3.1-3.83-4.67-5.72-.11-.13-.42-.14-.64-.13-2.24,.13-4.48,.3-6.71,.4-.56,.02-.84,.2-1.01,.71-.59,1.79-1.23,3.55-1.8,5.34-.92,2.9-1.77,5.82-2.73,8.7-.35,1.06-.94,2.04-1.47,3.14Zm13.51-19.12c-2.14-2.25-4.36-4.2-7.08-5.47-.28-.13-.77-.03-1.08,.12-3.01,1.48-6.01,2.98-9,4.49-.77,.39-.81,.65-.45,1.74,.22,.67,.56,.86,1.31,.74,2.95-.47,5.91-.92,8.88-1.22,2.41-.24,4.84-.26,7.43-.39Zm-23.71-8.07l-.21-.14c1.3-.79,1-1.9,.7-2.97-.2-.74-.58-.83-1.17-.3-.29,.27-.56,.56-.88,.89-.37-1.54-.37-3.1-1.2-4.41h-.32l-.5,4.52c-.31-.39-.55-.79-.89-1.08-.23-.2-.6-.24-.91-.34-.08,.35-.32,.77-.21,1.05,1.27,3.16,1.74,6.45,1.65,9.84-.01,.43,.89,1.09,1.25,.86,1.04-.66,2.14-.99,3.44-.8v-7.31l-.76,.21Zm-4.57,5.1h.08c-.18-1.19-.31-2.39-.54-3.58-.39-1.97-.78-3.98-1.9-5.68-.53-.81-1.32-1.49-2.12-2.05-.62-.43-1.33-.17-1.71,.5-.32,.55-.58,1.16-.72,1.77-.6,2.6-.28,5.18,.4,7.72,.49,1.84,1.22,3.59,2.5,5.12,.14-.36,.24-.74,.13-1.05-.57-1.62-.99-3.25-.92-4.98,.05-1.25,.53-2.13,1.3-2.34,.76-.2,1.57,.24,2.18,1.39,.53,1.01,.91,2.11,1.35,3.17Zm30.62-6.8c-.18,0-.26-.02-.33,0-1.91,.79-3.81,1.58-5.71,2.38-.13,.06-.27,.16-.35,.28-.46,.69-.9,1.4-1.27,1.98l6.41,5.01c1.6-2.99,1.62-6.27,1.25-9.65Zm-53.94,7.13c.55,1.94,1.33,3.51,2.49,4.88,.41,.49,1.83,.53,2.34,.09,.55-.47,1.08-.95,1.61-1.44,.43-.4,.39-1.74-.08-1.87-2.05-.56-4.11-1.09-6.35-1.67Zm15.69,4.46c-2.23-.67-4.42-1.33-6.62-1.98-.14-.04-.35-.05-.44,.03-.94,.83-1.87,1.68-2.8,2.53l.16,.23c.35,.02,.71,.04,1.06,.07,2.26,.17,4.52,.31,6.77,.53,1.2,.12,1.53-.05,1.86-1.41Zm6.97-2.93c.03-1.95-.51-3.73-1.67-5.28-.2-.27-.7-.57-.96-.5-.31,.09-.52,.55-.75,.87-.07,.1-.07,.25-.09,.37-.24,1.82,.22,3.52,.84,5.2,.02,.05,.12,.07,.35,.2-.06-.34-.1-.56-.13-.77-.13-.96-.33-1.92-.36-2.89,0-.34,.34-.85,.66-.98,.23-.1,.78,.22,.98,.5,.34,.47,.56,1.04,.74,1.59,.18,.54,.26,1.12,.39,1.68Zm-4.11,3.63c.09-.56,.38-1.23,.2-1.4-.52-.5-1.24-.79-1.99-1.23l-.21,1.84,1.99,.79Zm29.35-10.77c-1.09-.53-2.06-.5-2.47,.07-.12,.16-.2,.47-.12,.61,.08,.13,.42,.24,.59,.18,.66-.24,1.3-.55,2.01-.85Zm-8.13,9.95l-4.31,.58c1.55,.62,2.92,.03,4.31-.58Zm7.09-8.58l-2.28,1.01c.86,.52,1.64,.17,2.28-1.01Z"/><path class="h" d="M28.49,30.82l.47,3.8h.26c.1-.68,.14-1.39,.32-2.06,.29-1.09,.56-2.21,1.05-3.21,.95-1.95,2.46-2.33,4.36-1.26,.36,.2,.7,.43,1.05,.64l.2-.11-1.58-2.81,1.33,.3-.45-.59s0-.07,.01-.08c1.03-.87,2.06-1.74,3.03-2.56v.66l3.64-3.02,.15,.12c-.71,.97-1.54,1.9-1.54,3.32l2.46-1.08-.91,1.57,.13,.19c2.1-.4,4.17-.28,6.22,.22l-2.32,2.49,.14,.13c.77-.59,1.51-1.24,2.33-1.76,.85-.54,1.8-.68,2.97-.21-2.08,.45-2.96,1.92-3.6,3.51-.65,1.6-1.11,3.27-1.68,4.9-.26,.74-.61,1.45-.96,2.24-.3-.74-.43-1.44-.81-1.93-.54-.69-1.2-.18-1.78,.12-.26-.93-.44-1.85-.78-2.69-.15-.38-.62-.64-.95-.96-.27,.34-.66,.64-.78,1.02-.23,.75-.3,1.56-.44,2.41-.67-.41-1.36-.77-1.9,.02-.65-.73-1.25-1.51-1.96-2.15-1.24-1.12-2.91-.81-3.57,.73-.43,1-.73,2.11-.82,3.19-.28,3.29,.43,6.41,1.85,9.38,.08,.17,.14,.36,.22,.57-.65,.01-.89-.3-1.06-.84-.5-1.58-1.31-2.65-2.46-3.39,.48,.9,1.03,1.8,1.44,2.76,.44,1.01,.46,2.09,.25,3.23-1.79-.61-3.49-1.19-5.19-1.76-.78-.26-1.56-.54-2.36-.74-.55-.14-.77-.4-.71-.97,.13-1.38,.23-2.77,.34-4.16,.02-.22,.04-.45,.06-.63l-2.41,2.22c-.16-1.12,.43-1.9,1-2.69l-.11-.18-1.61,.42c.11-1.04,.75-1.6,2.56-2.11-1.06-.43-1.89-.93-1.6-2.27,.27,.24,.49,.45,.71,.63,1.59,1.34,3.3,.89,3.92-1.07,.61-1.91,.29-3.84-.15-5.73-1.17-5.06-3.62-9.46-7.03-13.35-.07-.08-.12-.16-.15-.27,4.01,3.02,7.45,6.57,10.27,10.74-.37,.35-.73,.64-1.03,.99-.28,.32-.49,.7-.63,1.22l1.44-.22c-.39,.74-.66,1.4-1.05,1.97-.84,1.22-1.11,2.56-.91,3.97,.19,1.31,.52,2.6,.93,3.87-.28-2.25-.85-4.47,.2-6.66Z"/><path class="h" d="M19.55,61.24l-4.28,2.18,1.67-4.1-.23-.14-2.67,1.73-.14-.13c1-1.64,1.95-3.31,3.01-4.91,1.27-1.91,2.64-3.76,3.94-5.65,.32-.46,.69-.62,1.24-.6,2.68,.12,5.36,.21,8.05,.41-1.76,.93-3.7,.87-5.62,.99,.03,.1,.04,.15,.04,.15,1.61,.07,2.29,1.31,2.98,2.47,2.11,3.57,4.16,7.18,6.28,10.76,.87,1.48,1.84,2.91,2.74,4.32-1.4-.48-2.92-.99-4.42-1.54-1.6-.59-3.19-1.19-4.76-1.85-3.74-1.57-7.55-1.42-11.4-.59-.23,.05-.45,.1-.68,.14-.02,0-.04-.03-.2-.16l4.57-3.29-.1-.19Z"/><path class="h" d="M54.73,28.74c1.66,1.03,1.07,2.86,1.45,4.35h.23c-.05-.96,0-1.93-.16-2.86-.2-1.16-.54-2.31-1.38-3.23-.12-.14-.12-.48-.05-.69,1.68-4.49,4.63-7.94,8.66-10.49,.63-.4,1.29-.75,1.95-1.12,.22-.12,.46-.22,.78-.24-.43,.48-.87,.95-1.29,1.44-2.83,3.32-4.58,7.21-5.92,11.3-.7,2.11-1.31,4.24-1.23,6.5,.01,.33,.05,.67,.13,.99,.15,.65,.53,1.1,1.21,1.26,.66,.16,1.15-.12,1.57-.59,.15-.17,.29-.35,.57-.47l-.82,2.44c1-.5,1.92-1.28,3.05-.21-.41-.03-.71-.08-1.01-.08-1.12,0-1.71,.69-1.6,1.79,.02,.21-.1,.56-.25,.64-3.4,1.74-6.81,3.45-10.23,5.17,.33-.83,.93-1.54,1.64-2.15,.71-.61,1.46-1.17,2.16-1.8-1.4,.43-2.61,1.16-3.64,2.19-.26,.26-.59,.5-.94,.62-1.34,.48-2.34,1.37-3.05,2.55-1.16-.33-1.25-1.13-1.11-1.74,1.53-1.2,2.88-2.21,4.17-3.3,1.04-.88,1.57-1.06,2.76-.64-.17-1.35-1.69-2.08-2.83-1.25-.78,.56-1.37,1.38-2.03,2.1-.61,.67-1.2,1.37-1.87,2-.43-1.8,.74-2.97,1.54-4.28l-.18-.16-1.46,1.42c.08-1.43-.38-2.79,.58-4.14,1.21-1.7,2.16-3.57,3.25-5.35,.25-.41,.6-.78,.95-1.12,1.09-1.07,2.42-.93,3.02,.48,.55,1.31,.8,2.75,1.16,4.14,.08,.31,.08,.65,.13,1.08,.6-1.04,.56-4.35,.09-6.55Zm-8.2,15.52c1.24,.27,2.63-.77,2.87-2.1l-2.87,2.1Z"/><path class="e" d="M59.85,47.44c-2.02,4.42-2.61,9.13-4.35,13.45-.67,1.64-1.44,3.25-2.26,4.82-.29,.55-.88,.93-1.47,1.54l.41-4.36-.23-.04c-.16,.6-.31,1.21-.48,1.81-.5,1.67-1.19,3.25-2.44,4.51-1.8,1.83-4.01,1.79-6.28,1.29-1.74-.38-3.19-1.29-4.36-2.64-.09-.11-.15-.25-.22-.37l-.21,.17,1.33,1.93-.05,.12c-.25-.16-.52-.28-.74-.47-1.55-1.31-2.56-3.02-3.58-4.73-1.94-3.26-3.88-6.52-5.88-9.74-.69-1.11-1.57-2.1-2.41-3.21,1.65,.05,3.32,0,4.81-1.2,.35,.59,.73,1.1,.98,1.67,1.15,2.62,2.22,5.28,3.42,7.87,.76,1.63,1.62,3.23,2.58,4.75,.54,.85,1.3,1.62,2.11,2.23,2.58,1.96,5.68,1.5,7.64-1.08,1.44-1.89,2.19-4.1,2.64-6.38,.55-2.78,.97-5.59,1.4-8.39,.13-.83,.35-1.3,1.32-1.5,1.27-.27,2.46-.91,3.7-1.33,.85-.29,1.74-.48,2.61-.71Z"/><path class="f" d="M21.73,33.64c-.66,1.03-.63,2.06-.02,3.16-1.19,.98-1.59,2.32-1.74,3.98l1.63-1.15c-.42,1.26-.69,2.33,.14,3.43,.44-.65,.49-1.56,1.44-1.76l-.32,3.33c-1.75-.45-3.49-.91-5.23-1.33-1.69-.41-1.71-.39-1.94-2.14-.44-3.29-.11-6.53,.56-9.76,.99-4.76,1.77-9.54,1.46-14.43-.06-.92-.23-1.83-.37-2.95,.85,1.01,1.61,1.86,2.31,2.76,2.89,3.7,5.17,7.71,6.13,12.36,.35,1.68,.53,3.37,.1,5.06-.32,1.26-1.09,1.6-2.19,.93-.67-.41-1.26-.96-1.95-1.49Z"/><path class="f" d="M68.88,13.33c-.34,1.39-.75,2.77-.99,4.18-.75,4.38-.18,8.68,.95,12.93,.46,1.74,.87,3.49,1.3,5.27-1.79,.69-3.46,1.36-5.15,1.97-.15,.05-.48-.17-.62-.34-.63-.83-1.33-1.52-2.52-1.51,0-1.07,.29-2.17-.4-3.24-.3,.64-.49,1.26-.85,1.75-.3,.42-.8,.97-1.22,.97-.64,0-.84-.75-.8-1.31,.09-1.56,.09-3.16,.47-4.66,1.41-5.63,4.24-10.54,8.07-14.87,.45-.52,1.07-.89,1.61-1.33l.15,.21Z"/><path class="h" d="M54.31,65.4c.52-1.1,1.12-2.08,1.47-3.14,.96-2.88,1.8-5.81,2.73-8.7,.57-1.79,1.21-3.56,1.8-5.34,.17-.52,.46-.69,1.01-.71,2.24-.1,4.48-.27,6.71-.4,.21-.01,.53,0,.64,.13,1.57,1.89,3.12,3.81,4.67,5.72l-.19,.2c-.94-.22-1.88-.48-2.83-.65-.91-.16-1.84-.21-2.77-.31l-.1,.32,5.06,3.28c-2.34-.27-4.42-.15-6.39,.75h4.5c-4.72,1.02-8.35,3.83-12.13,6.36-1.2,.8-2.43,1.55-3.66,2.32-.14,.09-.31,.11-.54,.19Z"/><path class="e" d="M46.96,46.83l-.8,1.02,3.11-1.78c.15,.55,.33,1.03,.39,1.53,.06,.48-.16,.81-.7,.92-.93,.19-1.85,.44-2.74,.84l2.87-.49c-.36,2.27-3.14,4.21-5.43,3.61-1.36-.36-2.5-.5-3.78,.25-.57,.33-1.47,.25-2.19,.16-2.02-.25-3.6-1.38-5.24-2.75h.98l.02-.11-1.41-.24,.67-1.48,2.57,.85,.04-.06-.41-.27c1.2-2.06,3.67-3.75,6.22-1.91,.9-.4,1.7-.9,2.57-1.11,1.24-.29,2.3,.34,3.29,1.05l-.02-.02Zm-5.63,.76c-.22-.14-.55-.4-.93-.54-.64-.25-1.39,.03-1.6,.56-.26,.65,.17,1.03,.63,1.34,.64,.42,1.32,.81,1.99,1.19,.11,.06,.34,.07,.41,0,.73-.68,1.49-1.35,2.15-2.09,.34-.38,.4-.91-.05-1.32-.44-.4-.93-.44-1.41-.1-.4,.28-.76,.61-1.19,.96Z"/><path class="h" d="M67.82,46.29c-2.59,.13-5.02,.15-7.43,.39-2.97,.3-5.93,.75-8.88,1.22-.75,.12-1.09-.07-1.31-.74-.36-1.09-.32-1.35,.45-1.74,2.99-1.51,5.99-3.01,9-4.49,.31-.15,.8-.26,1.08-.12,2.72,1.28,4.94,3.22,7.08,5.47Z"/><path class="e" d="M44.11,38.21l.76-.21v7.31c-1.31-.19-2.41,.15-3.44,.8-.36,.23-1.27-.43-1.25-.86,.09-3.39-.38-6.68-1.65-9.84-.11-.28,.13-.69,.21-1.05,.31,.11,.68,.15,.91,.34,.34,.29,.58,.69,.89,1.08l.5-4.51h.32c.83,1.3,.83,2.86,1.2,4.4,.32-.32,.59-.62,.88-.89,.59-.53,.97-.44,1.17,.3,.29,1.08,.59,2.18-.7,2.97l.21,.14Z"/><path class="e" d="M39.53,43.31c-.44-1.06-.82-2.16-1.35-3.17-.6-1.15-1.42-1.59-2.18-1.39-.77,.2-1.25,1.08-1.3,2.34-.07,1.73,.35,3.37,.92,4.98,.11,.31,0,.69-.13,1.05-1.28-1.54-2.01-3.28-2.5-5.12-.68-2.54-1-5.12-.4-7.72,.14-.62,.41-1.22,.72-1.77,.38-.67,1.09-.94,1.71-.5,.8,.56,1.59,1.25,2.12,2.05,1.12,1.7,1.52,3.71,1.9,5.68,.23,1.18,.37,2.39,.54,3.58h-.08Z"/><path class="f" d="M70.16,36.51c.36,3.38,.35,6.66-1.25,9.65l-6.41-5.01c.37-.58,.81-1.29,1.27-1.98,.08-.12,.22-.22,.35-.28,1.9-.8,3.81-1.59,5.71-2.38,.06-.03,.15,0,.33,0Z"/><path class="f" d="M16.22,43.64c2.25,.59,4.31,1.11,6.35,1.67,.47,.13,.52,1.47,.08,1.87-.53,.49-1.06,.97-1.61,1.44-.51,.44-1.93,.4-2.34-.09-1.16-1.37-1.94-2.95-2.49-4.88Z"/><path class="h" d="M31.9,48.1c-.33,1.35-.67,1.52-1.86,1.41-2.25-.22-4.52-.36-6.77-.53-.35-.03-.71-.04-1.06-.07l-.16-.23c.93-.85,1.85-1.7,2.8-2.53,.09-.08,.31-.07,.44-.03,2.19,.65,4.38,1.31,6.62,1.98Z"/><path class="f" d="M38.88,45.18c-.12-.56-.2-1.14-.39-1.68-.19-.55-.4-1.12-.74-1.59-.2-.28-.75-.6-.98-.5-.31,.13-.67,.64-.66,.98,.03,.97,.22,1.93,.36,2.89,.03,.22,.07,.43,.13,.77-.23-.13-.33-.15-.35-.2-.62-1.68-1.07-3.39-.84-5.2,.02-.13,.02-.28,.09-.37,.23-.32,.44-.79,.75-.87,.26-.07,.76,.22,.96,.5,1.16,1.55,1.7,3.33,1.67,5.28Z"/><path class="e" d="M34.77,48.8l-1.99-.79,.21-1.84c.76,.44,1.47,.74,1.99,1.23,.18,.17-.11,.84-.2,1.4Z"/><path class="h" d="M46.97,46.85c.29-.52,.48-1.12,.88-1.54,.5-.52,1.15-.87,1.79-1.34,.07,1.81-1.3,2.25-2.4,2.92-.06,.04-.19-.04-.28-.06v.02Z"/><path class="f" d="M64.12,38.03c-.7,.31-1.34,.61-2.01,.85-.17,.06-.51-.04-.59-.18-.08-.13,0-.45,.12-.61,.41-.57,1.38-.6,2.47-.07Z"/><path class="h" d="M55.99,47.98c-1.39,.61-2.76,1.2-4.31,.58l4.31-.58Z"/><path class="f" d="M63.08,39.41c-.64,1.18-1.42,1.53-2.28,1.01l2.28-1.01Z"/><path class="g" d="M46.53,44.26l2.87-2.1c-.23,1.33-1.63,2.36-2.87,2.1Z"/><path class="g" d="M41.33,47.59c.43-.35,.8-.68,1.19-.96,.48-.34,.97-.3,1.41,.1,.45,.41,.4,.94,.05,1.32-.67,.74-1.42,1.41-2.15,2.09-.08,.07-.3,.06-.41,0-.67-.38-1.34-.76-1.99-1.19-.46-.3-.89-.69-.63-1.34,.21-.53,.96-.81,1.6-.56,.38,.14,.7,.41,.93,.54Zm2.21-.93c-.51,.2-.88,.32-1.22,.51-.05,.03,.02,.5,.12,.54,.45,.18,1.01-.26,1.1-1.04Z"/><path class="e" d="M43.54,46.66c-.09,.78-.65,1.23-1.1,1.04-.1-.04-.17-.51-.12-.54,.34-.19,.71-.31,1.22-.51Z"/></g></g></g></g></svg>