<?xml version="1.0" encoding="UTF-8"?><svg xmlns="http://www.w3.org/2000/svg" viewBox="0 0 83.49 83.49"><defs><style>.e{fill:#eecb8f;}.f{fill:#fff;}.g{fill:#ca801f;}.h{fill:#da8f22;}</style></defs><g id="a"/><g id="b"><g id="c"><circle class="f" cx="41.75" cy="41.75" r="41.75"/><g><path class="f" d="M32.41,57.22l26.41-3.05c4.01,4.17,4.42,5.58,4.06,6.09-.41,.59-1.76-.11-5.08,0-1.82,.06-3.46,.13-5.08,1.02-.48,.26-1.69,.99-3.05,3.05-2.66,4.03-3.01,8.85-3.05,11.17l-8.13,1.02c-.21-2.65-.73-6.42-2.03-10.16-.71-2.02-1.08-3.06-2.03-4.06-1.38-1.46-2.92-1.84-3.05-3.05-.09-.82,.52-1.56,1.02-2.03Z"/><g id="d"><g><path class="f" d="M72.7,68.21c.83-1.38,1.17-2.92,1.47-4.45,.63-3.19,.78-6.42,.32-9.66-.54-3.76-1.82-7.25-3.89-10.46,1.34,.96,2.22,2.36,3.38,3.62-.01-.21,0-.3-.03-.38-.29-.81-.57-1.62-.89-2.42-1.03-2.58-2.4-4.95-4.23-7.04-1.69-1.92-3.71-3.34-6.22-3.94-.74-.18-1.53-.3-2.28-.23-1.27,.13-2.53,.42-3.79,.68-.37,.08-.58,.02-.78-.3-1.34-2.2-2.69-4.39-4.03-6.59-.09-.14-.12-.36-.08-.53,.09-.42,.27-.82,.33-1.24,.28-1.77,.59-3.54,.78-5.33,.09-.83-.01-1.69-.13-2.52-.22-1.47-.52-2.93-.81-4.5l2.22-.78c-.7,0-1.39,.09-2.07,.24-.35,.08-.59,.05-.8-.28-.63-.95-1.27-1.9-1.96-2.81-.33-.44-.79-.79-1.14-1.12-.23,1.42-.43,2.78-.68,4.13-.21,1.11-.57,2.16-1.85,2.51-.1,.03-.19,.11-.28,.17-1.07,.69-2.14,1.37-3.21,2.06l-.12-.08c1.16-4.16,3.67-7.47,6.84-10.37-.17-.02-.32-.02-.4,.05-1.11,.89-2.29,1.72-3.32,2.71-2.23,2.14-3.96,4.64-5.2,7.47-.14,.31-.32,.6-.48,.9l-.16-.07c.15-2.23,.87-4.3,1.8-6.33-1.34,1-2.55,3.23-3.41,6.23-.18-.16-.39-.26-.48-.43-.29-.49-.6-.99-.78-1.52-.67-1.91-1.27-3.84-1.93-5.75-.17-.49-.45-.94-.72-1.5-.13,.19-.17,.25-.21,.3-1.05,1.65-1.76,3.44-2.37,5.29-.74,2.25-1.12,4.54-1.1,6.9,0,.79,.1,1.57,.16,2.35,.13,1.64,.59,3.21,1.32,4.67,.28,.56,.26,.94-.02,1.39-.7,1.11-1.43,2.2-2.11,3.32-.23,.38-.5,.41-.89,.4-.86-.04-1.71-.32-2.6-.09-.86,.22-1.75,.3-2.62,.5-1.95,.46-3.64,1.46-5.2,2.67-1.93,1.5-3.59,3.3-4.86,5.4-1.15,1.91-2.24,3.87-3.19,5.89-.71,1.51-1.16,3.14-1.7,4.73-.14,.42-.19,.87-.28,1.3l.14,.04c.42-.72,.83-1.43,1.25-2.15,.42-.71,.85-1.42,1.28-2.12l.14,.08c0,.14,.03,.3,0,.43-.31,1.16-.7,2.3-.93,3.47-.26,1.32-.48,2.66-.5,4-.03,1.51,.15,3.03,.31,4.54,.13,1.28,.56,2.48,1.16,3.62,.06,.11,.2,.18,.35,.3,.38-1.81,3.08-5.09,3.9-5.28l-2.14,3.91,.14,.1c.12-.08,.24-.15,.36-.23,1.19-.78,2.32-1.67,3.58-2.31,1.46-.75,3.02-1.31,4.56-1.92,.45-.18,.96-.2,1.44-.3-2.56,3.35-6.61,11.42-6.15,12.48,.53-1.22,1.01-2.44,1.59-3.62,1.46-3,3.15-5.87,5.17-8.54,.33-.44,.75-.69,1.29-.72,1.58-.1,3.15-.08,4.71,.23,.17,.03,.32,.16,.44,.21-.46,1.2-.94,2.34-1.34,3.51-.4,1.16-.76,2.34-1.04,3.54-.29,1.22-.49,2.46-.69,3.7-.19,1.21-.36,2.43-.31,3.66,.18-.8,.24-1.62,.43-2.41,.51-2.18,.98-4.38,1.62-6.52,.5-1.68,1.24-3.28,1.88-4.91,.13-.34,.3-.38,.64-.18,1.15,.66,1.97,1.63,2.66,2.73,1.63,2.61,2.53,5.52,3.26,8.48,.32,1.32,.51,2.67,.76,4.01,.11,.58,.22,1.16,.33,1.74,.09-.3,.12-.6,.08-.9-.13-1.02-.26-2.04-.43-3.06-.23-1.41-.4-2.85-.77-4.22-.43-1.57-.99-3.12-1.62-4.63-.74-1.77-1.82-3.34-3.4-4.48-.93-.67-.94-.66-.29-1.58,.02-.02,.06-.03,.1-.05,2.12,1.35,4.44,1.49,6.75,.8,1.83-.54,3.57-1.41,5.36-2.11,.34-.13,.78-.28,1.08-.18,1.32,.46,2.59,1.04,3.9,1.53,1.42,.53,2.88,.69,4.36,.28,1.75-.48,3.07-1.61,4.25-2.93,.26-.29,.4-.3,.66-.06,1,.95,2.04,1.87,3.02,2.85,.56,.55,1.03,1.18,1.54,1.77-.41,.11-.74,.11-1.07,.06-.81-.12-1.61-.31-2.42-.37-1.69-.13-3.38,.02-5,.48-2.39,.69-4.24,2.16-5.44,4.39-.78,1.44-1.3,2.97-1.65,4.57-.42,1.91-.7,3.84-.67,5.8,0,.29,.03,.59,.05,.88,.1-.06,.13-.11,.14-.16,.25-1.68,.48-3.37,.75-5.04,.29-1.75,.88-3.4,1.64-5,1.41-2.98,3.71-4.82,6.98-5.22,2.31-.28,4.65-.13,6.91,.55,.31,.09,.7,.18,.88,.4,1.01,1.3,1.96,2.64,2.94,3.97,.4,.54,.82,1.07,1.23,1.6l.2-.15-3.42-5.28c2.59,.93,4.84,2.1,6.34,4.56,.01-2.13-.89-3.7-1.94-5.21,2.11,2.02,3.33,4.43,3.33,7.42Z"/><path class="h" d="M72.7,68.21c0-2.99-1.23-5.4-3.33-7.42,1.05,1.51,1.96,3.08,1.94,5.21-1.5-2.47-3.75-3.63-6.34-4.56l3.42,5.28-.2,.15c-.41-.53-.83-1.06-1.23-1.6-.98-1.32-1.93-2.67-2.94-3.97-.18-.23-.57-.31-.88-.4-2.26-.69-4.6-.83-6.91-.55-3.27,.39-5.57,2.24-6.98,5.22-.76,1.6-1.35,3.25-1.64,5-.28,1.68-.5,3.36-.75,5.04,0,.05-.04,.1-.14,.16-.02-.29-.05-.59-.05-.88-.02-1.96,.26-3.88,.67-5.8,.35-1.6,.87-3.13,1.65-4.57,1.21-2.23,3.05-3.69,5.44-4.39,1.61-.47,3.31-.62,5-.48,.81,.06,1.61,.26,2.42,.37,.33,.05,.66,.05,1.07-.06-.51-.59-.99-1.22-1.54-1.77-.98-.97-2.02-1.89-3.02-2.85-.26-.24-.4-.24-.66,.06-1.17,1.32-2.5,2.45-4.25,2.93-1.48,.41-2.94,.25-4.36-.28-1.31-.49-2.58-1.07-3.9-1.53-.31-.11-.75,.04-1.08,.18-1.79,.7-3.53,1.57-5.36,2.11-2.32,.69-4.64,.54-6.75-.8-.04,.02-.09,.03-.1,.05-.65,.93-.64,.91,.29,1.58,1.59,1.15,2.67,2.71,3.4,4.48,.63,1.51,1.19,3.05,1.62,4.63,.38,1.38,.54,2.81,.77,4.22,.17,1.02,.3,2.04,.43,3.06,.04,.29,0,.59-.08,.9-.11-.58-.22-1.16-.33-1.74-.25-1.34-.44-2.69-.76-4.01-.73-2.96-1.62-5.86-3.26-8.48-.69-1.1-1.5-2.07-2.66-2.73-.34-.19-.51-.16-.64,.18-.64,1.64-1.38,3.24-1.88,4.91-.64,2.14-1.12,4.34-1.62,6.52-.18,.79-.25,1.61-.43,2.41-.06-1.23,.11-2.45,.31-3.66,.2-1.24,.4-2.48,.69-3.7,.28-1.19,.65-2.37,1.04-3.54,.4-1.17,.87-2.3,1.34-3.51-.12-.06-.27-.18-.44-.21-1.56-.31-3.13-.33-4.71-.23-.55,.04-.96,.29-1.29,.72-2.02,2.67-3.71,5.54-5.17,8.54-.58,1.18-1.06,2.41-1.59,3.62-.46-1.06,3.59-9.13,6.15-12.48-.48,.1-.99,.12-1.44,.3-1.53,.6-3.1,1.16-4.56,1.92-1.26,.65-2.39,1.53-3.58,2.31-.12,.08-.24,.16-.36,.23l-.14-.1,2.14-3.91c-.82,.19-3.52,3.47-3.9,5.28-.14-.12-.29-.19-.35-.3-.6-1.14-1.03-2.34-1.16-3.62-.15-1.51-.33-3.03-.31-4.54,.02-1.34,.25-2.68,.5-4,.23-1.17,.62-2.31,.93-3.47,.04-.14,0-.29,0-.43l-.14-.08c-.43,.71-.86,1.41-1.28,2.12-.42,.71-.83,1.43-1.25,2.15l-.14-.04c.09-.43,.14-.88,.28-1.3,.54-1.59,1-3.22,1.7-4.73,.95-2.02,2.03-3.98,3.19-5.89,1.27-2.1,2.92-3.9,4.86-5.4,1.56-1.21,3.25-2.22,5.2-2.67,.86-.2,1.76-.28,2.62-.5,.89-.23,1.73,.06,2.6,.09,.39,.02,.66-.02,.89-.4,.68-1.12,1.41-2.21,2.11-3.32,.28-.45,.3-.83,.02-1.39-.73-1.46-1.19-3.02-1.32-4.67-.06-.78-.15-1.57-.16-2.35-.03-2.36,.36-4.66,1.1-6.9,.61-1.85,1.32-3.65,2.37-5.29,.04-.06,.08-.11,.21-.3,.27,.56,.55,1.01,.72,1.5,.66,1.91,1.26,3.84,1.93,5.75,.19,.53,.5,1.03,.78,1.52,.1,.16,.3,.27,.48,.43,.86-3,2.06-5.23,3.41-6.23-.93,2.02-1.65,4.1-1.8,6.33l.16,.07c.16-.3,.34-.59,.48-.9,1.24-2.84,2.97-5.34,5.2-7.47,1.03-.99,2.2-1.82,3.32-2.71,.09-.07,.23-.07,.4-.05-3.17,2.9-5.68,6.2-6.84,10.37l.12,.08c1.07-.69,2.14-1.37,3.21-2.06,.09-.06,.18-.15,.28-.17,1.27-.36,1.63-1.4,1.85-2.51,.26-1.35,.45-2.71,.68-4.13,.35,.33,.8,.68,1.14,1.12,.69,.91,1.33,1.86,1.96,2.81,.22,.33,.45,.35,.8,.28,.68-.15,1.36-.24,2.07-.24l-2.22,.78c.29,1.57,.59,3.03,.81,4.5,.12,.83,.22,1.69,.13,2.52-.19,1.78-.5,3.55-.78,5.33-.07,.42-.25,.82-.33,1.24-.03,.17,0,.39,.08,.53,1.34,2.2,2.69,4.39,4.03,6.59,.2,.33,.4,.38,.78,.3,1.26-.27,2.52-.55,3.79-.68,.74-.08,1.54,.05,2.28,.23,2.51,.6,4.54,2.02,6.22,3.94,1.84,2.09,3.21,4.46,4.23,7.04,.32,.8,.6,1.61,.89,2.42,.03,.08,.02,.18,.03,.38-1.17-1.26-2.04-2.66-3.38-3.62,2.07,3.21,3.35,6.7,3.89,10.46,.47,3.23,.32,6.46-.32,9.66-.3,1.53-.64,3.07-1.47,4.45Zm-23.69-29.6l.07,.18c.2,.09,.39,.21,.6,.25,1.13,.22,2.18,.66,3.16,1.25,1.38,.84,2.31,2.02,2.54,3.62,.21,1.43-.18,2.79-.85,4.06-.99,1.85-2.41,3.3-4.14,4.45-1.28,.85-2.68,1.53-4.21,1.72-1.61,.2-3.23,.15-4.83-.39-2.43-.81-4.68-1.89-6.59-3.62-.89-.81-1.62-1.75-1.95-2.93-.55-2,.39-4.51,2.1-5.75,.74-.54,1.51-1.03,2.28-1.55-.15-.19-.28-.4-.45-.57-1.52-1.51-3.03-3.05-4.93-4.09-1.13-.62-2.33-1.2-3.57-1.54-1.46-.4-3-.17-4.45,.23-3.34,.93-5.98,2.95-8.21,5.53-1.71,1.98-3.03,4.21-4.21,6.53-.27,.54-.48,1.11-.72,1.67,.43-.33,.73-.72,1.06-1.09,.34-.39,.7-.77,1.06-1.15,.33-.34,.68-.67,1.02-1l.1,.1c-1.39,2.84-2.82,5.67-3.3,8.85-.22,1.43-.5,2.87-.56,4.31-.04,1.18,.18,2.37,.35,3.55,.12,.83,.34,1.66,.51,2.48l.18,.03c.16-.21,.33-.42,.47-.64,1.57-2.41,3.53-4.43,6.07-5.82,.46-.25,.97-.4,1.59-.65-.87,.93-1.67,1.67-2.35,2.51-.66,.83-1.21,1.75-1.8,2.64l.16,.13c.35-.19,.7-.39,1.05-.58,2.03-1.15,4.17-1.99,6.45-2.51,.61-.14,1.27-.15,1.75-.74,1.11-1.38,2.42-2.57,3.89-3.57,.5-.34,.53-.71,.4-1.18-.4-1.47-.14-2.87,.45-4.23,.16-.36,.3-.69-.06-1.08-.23-.24-.32-.68-.34-1.03-.03-1.05,.01-2.11,.02-3.2-.1,0-.3-.05-.46,0-.73,.26-1.5,.46-2.16,.84-1.58,.92-3.11,1.94-4.66,2.91-.15,.09-.31,.17-.46,.26l-.08-.15c2.06-2.27,4.44-4.03,7.57-4.5,.87-.13,1.76-.21,2.65,0-.29,.12-.6,.09-.86,.19-.3,.12-.77,.32-.81,.55-.17,.93-.25,1.89-.26,2.84,0,.4,.08,.88,.51,1.1l1.45-1.24,.09,.11c-.34,.53-.71,1.04-1.03,1.58-.88,1.53-1.47,3.14-1.05,4.96,.09,.37,.19,.55,.6,.29,.39-.24,.83-.44,1.26-.6,.16-.06,.38,.04,.57,.06-.11,.14-.19,.34-.34,.42-.44,.27-.91,.49-1.37,.73-.24,.12-.29,.25-.14,.53,.46,.91,1.1,1.66,1.91,2.32,.34-.35,.64-.7,.98-1.01,.1-.09,.29-.09,.44-.14,0,.17,.05,.38-.03,.5-.22,.33-.51,.63-.8,.99,.14,.12,.26,.27,.42,.33,.58,.25,1.16,.53,1.76,.69,2.14,.58,4.15-.07,6.12-.81,1.28-.48,2.49-1.14,3.76-1.64,.65-.26,1.35-.55,2.19-.27l-.66,.27c.18,.14,.3,.27,.45,.33,1.32,.51,2.62,1.08,3.97,1.5,1.15,.36,2.33,.24,3.47-.18,1.28-.48,2.28-1.33,3.19-2.31,.42-.45,.71-.49-.12-.98-.17-.1-.36-.2-.5-.34-.11-.11-.17-.27-.26-.41,.16-.03,.35-.13,.48-.08,.27,.11,.51,.3,.77,.44,.28,.15,.54,.26,.69-.2,.17-.54,.46-1.05,.61-1.6,.26-1,.11-1.17-.92-1.25-.17-.01-.36,.02-.5-.05-.18-.09-.31-.25-.47-.39,.18-.07,.36-.21,.54-.2,.45,.02,.9,.1,1.38,.16,.09-1.13-.33-2-.88-2.8-.53-.78-1.12-1.52-1.68-2.28,.35,.12,.63,.31,.9,.52,.24,.19,.4,.18,.49-.14,.04-.12,.1-.24,.14-.37,.21-.7,.41-1.4,.63-2.15l-2.36-.42c3.31-1.01,8.68,2.21,10.47,5.72-.83-.73-1.56-1.35-2.27-1.99-1.45-1.32-3.02-2.41-4.91-3.02-.33-.11-.43-.05-.52,.25-.2,.73-.42,1.46-.65,2.18-.13,.41-.17,.75,.12,1.17,.58,.82,.99,1.73,1.01,2.77,0,.56,.38,.7,.84,.8,1.36,.3,2.72,.61,4.08,.93,1.75,.41,3.37,1.12,4.96,1.93,.33,.17,.63,.38,.94,.57-1.77-.54-3.47-1.21-5.2-1.8-1.75-.59-3.55-1-5.32-1.18l-1.07,3.52c1.94,1.55,3.67,3.38,5.27,5.35,.26,.32,.66,.58,1.04,.76,1.09,.51,2.22,.94,3.31,1.47,.66,.32,1.26,.77,1.89,1.15l.12-.11c-1.18-2.14-2.95-3.83-4.46-5.74,1.75,.74,3.3,1.77,4.6,3.16,1.3,1.4,2.23,3.03,2.8,4.89,.67-1.33,.84-2.8,.99-4.21,.83-7.97-1.2-15.06-6.8-20.99,2,.75,3.4,2.27,4.96,3.81-.03-.28,0-.43-.06-.55-.2-.43-.42-.86-.65-1.28-1.39-2.53-2.99-4.89-5.39-6.61-2.6-1.85-5.44-2.3-8.47-1.41-1.33,.39-2.65,.88-3.87,1.51-1.61,.84-3.13,1.86-4.69,2.8Zm5.94,6.73c0-2.21-.73-3.54-1.99-4.4-2.66-1.82-5.7-2.03-8.75-2.03-1.44,0-2.9,.31-4.32,.64-2.05,.47-3.95,1.34-5.38,2.94-1.11,1.24-1.72,2.71-1.29,4.43,.38,1.52,1.42,2.57,2.59,3.49,1.96,1.53,4.16,2.53,6.57,3.14,1.68,.42,3.32,.39,4.92-.16,2.31-.79,4.27-2.12,5.78-4.07,1.06-1.36,1.81-2.84,1.86-3.98Zm-14.24-7.89c-.77,.65-1.18,.62-1.62-.23-.7-1.36-.71-2.78-.03-4.16,.37-.76,1.02-.75,1.51-.04,.04,.06,.05,.14,.07,.21l.23-.1c-.07-.79-.08-1.59-.21-2.37-.22-1.28-.49-2.55-.8-3.81-.3-1.25-.74-2.46-1.55-3.47-.29-.37-.46-.65-.16-1.12-.36,.17-.68,.35-.91,.62-1.36,1.58-1.87,3.52-2.08,5.51-.25,2.42-.06,4.83,.66,7.18,.39,1.28,.91,2.49,1.84,3.51,.31,.34,.57,.47,1.01,.23,.29-.16,.63-.22,.96-.3,.93-.23,1.2-.62,1.08-1.65Zm4.15,.11c.23,.32-.1,.96,.61,1,.77,.04,1.54,.07,2.31,.07,.18,0,.48-.16,.51-.29,.42-1.6,.99-3.2,1.16-4.83,.28-2.6,.24-5.22-.43-7.78-.31-1.17-.74-2.31-1.84-3.01-.27-.17-.58-.26-.79-.35-.06,.33-.07,.54-.14,.72-.39,1.01-.93,1.99-1.16,3.04-.31,1.38-.42,2.8-.56,4.21-.1,1.03-.11,2.07-.17,3.24,.23-.2,.32-.26,.39-.34,.59-.78,1.05-.74,1.47,.15,.53,1.11,.53,2.26,.11,3.39-.34,.9-.67,1.04-1.47,.8Zm-12.69-10.03c3.22-5.6,3.14-11.44,1.53-17.48-1.06,1.08-2.76,5.79-2.98,9.51-.16,2.77,.22,5.45,1.45,7.98Zm12.85-7.65l.14,.05c.19-.37,.35-.76,.57-1.11,.74-1.17,1.49-1.23,2.4-.2,.96,1.08,1.51,2.38,1.86,3.77,.2,.79,.31,1.61,.51,2.4,.1,.41,.25,.86,.98,.76,.21-1.5,.5-3.03,.63-4.58,.21-2.49-.06-4.94-.97-7.29-.11-.28-.25-.44-.58-.29-.52,.24-1.03,.53-1.58,.67-.54,.14-.54,.47-.51,.89,.09,1.01,.18,2.01,.26,3.02,0,.04-.05,.09-.1,.17-.77-.42-1.48-1.17-2.44-.55-.83,.54-1.01,1.42-1.18,2.29ZM24.99,58.35c.36,.03,.53,.06,.69,.05,1.56-.06,3.11-.04,4.63,.42,.12,.04,.38-.12,.47-.26,.22-.34,.37-.73,.55-1.1,0,0-.07-.03-.09-.06-.63-.77-1.26-1.53-1.87-2.32-.21-.28-.35-.35-.65-.09-.48,.41-1.03,.74-1.5,1.17-.73,.66-1.41,1.37-2.23,2.18ZM50.67,12.63c-.56-1.05-1.16-2-2.02-2.82-.29,1.1-.31,3.1-.03,3.55l2.06-.73Zm-16.52,12.37h.16c.28-.94,.52-1.9,.84-2.83,.33-.96,.67-1.95,1.44-2.68,.92-.87,1.85-.81,2.43,.33,.17,.34,.32,.69,.48,1.03l.15-.04c-.09-.4-.13-.81-.27-1.19-.29-.83-1.15-1.36-2.05-1.07-.66,.21-1.1,.67-1.48,1.2-.71,1-1.05,2.16-1.37,3.32-.17,.63-.22,1.29-.33,1.93Zm9.34-6.74c.29,.08,.52,.11,.7,.21,.46,.27,.67,.02,.85-.36,.2-.42,.43-.83,.63-1.26,.12-.27,.21-.55,.31-.83l-.15-.09"/><path class="f" d="M49.01,38.6c1.56-.94,3.07-1.97,4.69-2.8,1.22-.63,2.54-1.12,3.87-1.51,3.03-.89,5.87-.44,8.47,1.41,2.4,1.71,4,4.08,5.39,6.61,.23,.42,.45,.84,.65,1.28,.05,.11,.03,.26,.06,.55-1.56-1.55-2.95-3.06-4.96-3.81,5.6,5.94,7.63,13.02,6.8,20.99-.15,1.42-.31,2.88-.99,4.21-.56-1.87-1.49-3.49-2.8-4.89-1.29-1.39-2.84-2.42-4.6-3.16,1.52,1.9,3.28,3.6,4.46,5.74l-.12,.11c-.63-.39-1.23-.83-1.89-1.15-1.08-.53-2.22-.95-3.31-1.47-.38-.18-.78-.44-1.04-.76-1.6-1.97-3.34-3.8-5.27-5.35l1.07-3.52c1.77,.18,3.57,.59,5.32,1.18,1.73,.58,3.43,1.26,5.2,1.8-.31-.19-.62-.41-.94-.57-1.59-.81-3.22-1.52-4.96-1.93-1.36-.32-2.72-.63-4.08-.93-.46-.1-.83-.24-.84-.8-.02-1.04-.43-1.96-1.01-2.77-.3-.42-.25-.75-.12-1.17,.23-.72,.44-1.45,.65-2.18,.08-.3,.19-.36,.52-.25,1.89,.6,3.47,1.7,4.91,3.02,.71,.64,1.44,1.26,2.27,1.99-1.79-3.52-7.16-6.73-10.47-5.72l2.36,.42c-.22,.75-.42,1.45-.63,2.15-.04,.12-.1,.24-.14,.37-.09,.31-.25,.32-.49,.14-.27-.21-.55-.4-.9-.52,.56,.76,1.15,1.5,1.68,2.28,.55,.8,.97,1.67,.88,2.8-.48-.06-.93-.14-1.38-.16-.18,0-.36,.13-.54,.2,.15,.13,.29,.3,.47,.39,.14,.07,.33,.04,.5,.05,1.03,.08,1.18,.26,.92,1.25-.15,.55-.44,1.06-.61,1.6-.15,.46-.41,.35-.69,.2-.26-.14-.5-.34-.77-.44-.13-.05-.32,.05-.48,.08,.08,.14,.14,.3,.26,.41,.14,.14,.33,.24,.5,.34,.83,.49,.54,.53,.12,.98-.91,.98-1.91,1.84-3.19,2.31-1.14,.43-2.32,.54-3.47,.18-1.35-.42-2.65-.99-3.97-1.5-.15-.06-.26-.19-.45-.33l.66-.27c-.85-.28-1.54,.01-2.19,.27-1.27,.5-2.48,1.15-3.76,1.64-1.97,.74-3.98,1.39-6.12,.81-.61-.16-1.18-.44-1.76-.69-.15-.07-.27-.22-.42-.33,.3-.36,.58-.65,.8-.99,.08-.12,.02-.33,.03-.5-.15,.04-.33,.04-.44,.14-.34,.31-.64,.65-.98,1.01-.81-.66-1.45-1.41-1.91-2.32-.14-.28-.09-.41,.14-.53,.46-.24,.93-.47,1.37-.73,.14-.09,.23-.28,.34-.42-.19-.03-.41-.12-.57-.06-.44,.16-.87,.35-1.26,.6-.41,.25-.51,.08-.6-.29-.42-1.82,.16-3.42,1.05-4.96,.31-.54,.68-1.06,1.03-1.58l-.09-.11-1.45,1.24c-.42-.21-.51-.7-.51-1.1,.01-.95,.09-1.9,.26-2.84,.04-.23,.5-.43,.81-.55,.26-.1,.58-.07,.86-.19-.88-.2-1.78-.12-2.65,0-3.14,.47-5.52,2.23-7.57,4.5l.08,.15c.15-.09,.31-.16,.46-.26,1.55-.98,3.08-1.99,4.66-2.91,.66-.38,1.43-.58,2.16-.84,.16-.06,.36,0,.46,0-.01,1.09-.06,2.14-.02,3.2,.01,.35,.11,.79,.34,1.03,.37,.39,.22,.72,.06,1.08-.58,1.37-.84,2.76-.45,4.23,.13,.48,.09,.85-.4,1.18-1.47,.99-2.78,2.18-3.89,3.57-.48,.59-1.14,.61-1.75,.74-2.28,.51-4.42,1.36-6.45,2.51-.35,.2-.7,.39-1.05,.58l-.16-.13c.6-.88,1.14-1.81,1.8-2.64,.67-.84,1.47-1.59,2.35-2.51-.62,.25-1.13,.4-1.59,.65-2.54,1.39-4.5,3.41-6.07,5.82-.15,.22-.31,.43-.47,.64l-.18-.03c-.17-.83-.39-1.65-.51-2.48-.17-1.18-.39-2.37-.35-3.55,.05-1.44,.34-2.87,.56-4.31,.48-3.18,1.91-6.01,3.3-8.85l-.1-.1c-.34,.33-.69,.66-1.02,1-.36,.37-.71,.76-1.06,1.15-.32,.37-.63,.76-1.06,1.09,.24-.56,.45-1.13,.72-1.67,1.18-2.32,2.5-4.55,4.21-6.53,2.23-2.59,4.86-4.61,8.21-5.53,1.45-.4,2.99-.63,4.45-.23,1.24,.34,2.44,.92,3.57,1.54,1.89,1.04,3.41,2.58,4.93,4.09,.17,.17,.3,.37,.45,.57-.76,.51-1.53,1.01-2.28,1.55-1.71,1.24-2.65,3.75-2.1,5.75,.32,1.17,1.05,2.12,1.95,2.93,1.91,1.73,4.16,2.81,6.59,3.62,1.6,.53,3.21,.58,4.83,.39,1.53-.19,2.93-.87,4.21-1.72,1.73-1.14,3.15-2.6,4.14-4.45,.68-1.27,1.06-2.63,.85-4.06-.23-1.6-1.16-2.78-2.54-3.62-.98-.6-2.03-1.03-3.16-1.25-.21-.04-.4-.16-.6-.25l-.07-.18Z"/><path class="g" d="M54.96,45.33c-.05,1.14-.8,2.62-1.86,3.98-1.51,1.95-3.47,3.28-5.78,4.07-1.61,.55-3.25,.58-4.92,.16-2.41-.61-4.62-1.61-6.57-3.14-1.18-.92-2.21-1.98-2.59-3.49-.43-1.72,.18-3.19,1.29-4.43,1.43-1.6,3.33-2.47,5.38-2.94,1.42-.32,2.88-.64,4.32-.64,3.05,0,6.09,.21,8.75,2.03,1.26,.86,1.99,2.2,1.99,4.4Z"/><path class="f" d="M40.71,37.44c.12,1.03-.15,1.43-1.08,1.65-.32,.08-.67,.14-.96,.3-.44,.24-.69,.12-1.01-.23-.92-1.01-1.44-2.23-1.84-3.51-.72-2.34-.91-4.76-.66-7.18,.2-1.99,.71-3.93,2.08-5.51,.23-.26,.55-.45,.91-.62-.3,.47-.13,.75,.16,1.12,.81,1.02,1.24,2.23,1.55,3.47,.31,1.26,.58,2.53,.8,3.81,.13,.78,.14,1.58,.21,2.37l-.23,.1c-.02-.07-.03-.15-.07-.21-.49-.71-1.13-.72-1.51,.04-.68,1.37-.67,2.79,.03,4.16,.44,.85,.85,.88,1.62,.23Z"/><path class="f" d="M44.86,37.55c.8,.24,1.13,.1,1.47-.8,.43-1.13,.42-2.28-.11-3.39-.42-.89-.89-.93-1.47-.15-.07,.09-.16,.15-.39,.34,.06-1.18,.07-2.21,.17-3.24,.14-1.41,.25-2.83,.56-4.21,.24-1.05,.77-2.02,1.16-3.04,.07-.19,.08-.4,.14-.72,.21,.09,.53,.19,.79,.35,1.1,.7,1.54,1.84,1.84,3.01,.67,2.56,.71,5.18,.43,7.78-.18,1.63-.74,3.23-1.16,4.83-.04,.14-.34,.29-.51,.29-.77,0-1.54-.03-2.31-.07-.7-.03-.37-.68-.61-1Z"/><path class="e" d="M32.17,27.52c-1.23-2.53-1.61-5.21-1.45-7.98,.22-3.71,1.91-8.43,2.98-9.51,1.62,6.04,1.69,11.89-1.53,17.48Z"/><path class="e" d="M45.02,19.88c.18-.87,.35-1.75,1.18-2.29,.96-.61,1.67,.14,2.44,.55,.05-.08,.1-.13,.1-.17-.08-1.01-.17-2.01-.26-3.02-.04-.42-.04-.75,.51-.89,.55-.14,1.06-.43,1.58-.67,.33-.15,.47,0,.58,.29,.91,2.35,1.18,4.8,.97,7.29-.13,1.54-.42,3.07-.63,4.58-.73,.1-.87-.35-.98-.76-.2-.79-.32-1.6-.51-2.4-.34-1.39-.9-2.68-1.86-3.77-.92-1.04-1.66-.97-2.4,.2-.22,.35-.38,.74-.57,1.11l-.14-.05Z"/><path class="f" d="M24.99,58.35c.82-.81,1.5-1.52,2.23-2.18,.47-.43,1.02-.75,1.5-1.17,.3-.26,.44-.19,.65,.09,.61,.79,1.24,1.55,1.87,2.32,.02,.03,.09,.05,.09,.06-.18,.37-.33,.75-.55,1.1-.09,.14-.34,.29-.47,.26-1.52-.46-3.07-.48-4.63-.42-.16,0-.33-.02-.69-.05Z"/><path class="e" d="M50.67,12.63l-2.06,.73c-.27-.45-.26-2.44,.03-3.55,.86,.82,1.46,1.76,2.02,2.82Z"/><path class="e" d="M34.15,25c.11-.65,.15-1.31,.33-1.93,.32-1.16,.66-2.32,1.37-3.32,.38-.53,.81-.99,1.48-1.2,.89-.29,1.76,.25,2.05,1.07,.13,.38,.18,.79,.27,1.19l-.15,.04c-.16-.34-.31-.69-.48-1.03-.57-1.14-1.5-1.2-2.43-.33-.77,.73-1.1,1.71-1.44,2.68-.32,.93-.56,1.89-.84,2.84h-.16Z"/></g></g></g></g></g></svg>