<?xml version="1.0" encoding="UTF-8"?><svg xmlns="http://www.w3.org/2000/svg" viewBox="0 0 83.49 83.49"><defs><style>.e{fill:#fff;}.f{fill:#f4e4ee;}.g{fill:#d995bc;}.h{fill:#8a1955;}</style></defs><g id="a"/><g id="b"><g id="c"><circle class="e" cx="41.75" cy="41.75" r="41.75"/><g id="d"><g><path class="e" d="M47.96,62.67c1.65-.53,2.99-1.02,4.37-1.38,3.34-.89,6.56,.13,9.8,.65,2.13,.34,4.23,.72,6.41,.29,1.63-.32,3.31-1.9,3.13-3.41-.19-1.6-.28-3.45-1.19-4.69-1.31-1.78-2.6-4.1-5.53-4.04-3.01,.06-6.02,.25-9.01,.5-1.1,.09-2.22-.52-2.03-1.45,.3-1.46,.51-2.97,1.07-4.35,.55-1.35-.34-1.7-1.25-2.13-.33-.16-.76-.12-1.09-.26-.36-.15-.9-.41-.92-.64-.02-.3,.36-.68,.66-.92,.45-.35,1.03-.57,1.49-.91,.26-.2,.6-.56,.56-.8-.3-1.66,1.04-1.74,2.27-2.26,.12,.58,.13,.98,.28,1.33,1.18,2.73,2.34,5.47,3.63,8.16,.2,.41,1,.73,1.55,.78,.27,.02,.81-.67,.88-1.09,.6-3.89,2.17-7.41,4.35-10.76,1.43-2.19,1.11-2.72-1.27-4.05-2.8-1.57-5.19-3.32-5.29-6.83-.06-2.1-1.98-3.11-3.92-2.12-3.53,1.81-6.78,3.9-7.64,8.03-.53,2.55-1.41,5.05-2.24,7.54-.31,.93-.59,2.18-2.35,1.57l.71-1.79-5.57,2.32c-.16-1.12-.38-2.09-.42-3.06-.09-2.16,.01-4.33-.16-6.48-.09-1.05-.39-2.21-1-3.08-4.74-6.77-9.58-13.49-14.4-20.21-.64-.89-1.36-1.73-2.04-2.6l-.55,.03c-.27,.7-.69,1.38-.77,2.1-.36,2.97,.71,5.87,.34,8.9-.22,1.79,.94,3.68,1.08,5.56,.2,2.69,1.04,5.1,2.71,7.28,.33,.44,.68,.87,1.11,1.43-1.89,.18-1.73,1.14-1.1,2.15,.43,.69,1.01,1.3,1.58,1.89,1.11,1.16,2.72,2.13,3.28,3.48,.67,1.59,1.84,2.14,3.2,2.89,1.31,.73,2.35,1.88,3.78,3.07-1.05,.19-1.52,.3-2,.37-2.9,.44-4.41,2.33-3.94,4.96,.34,1.91-.77,2.92-2.77,2.38-3.5-.94-6.97-.68-10.44,.05-.6,.12-1.28,.42-1.65,.84-.64,.72-1.12,1.58-1.55,2.43-.37,.74-.99,1.68-.77,2.3,.58,1.61,1.55,3.1,2.42,4.61,.09,.15,.6,.07,.91,.14,.48,.12,.99,.2,1.42,.42,1.55,.8,3.11,1.32,4.95,.86,1.67-.42,3.38-.78,5.09-.97,3.07-.35,6.13-.41,9,1.1-.45,1.62-2.73,2.78-1.48,4.51,.94,1.3,2.48,2.23,3.82,3.38-.41,.55-1.16,1.18-1.38,1.94-.66,2.37,.34,4.47,2.57,5.88,1.6,1.01,3.42,.34,3.75-1.46,.18-.98,.19-2.01,.1-3.01-.2-2.18,.48-3.77,2.95-4.4,.46-.12,.86-.42,1.28-.64,1.85-.96,2.24-2.56,1.02-4.17-.46-.61-.97-1.19-1.77-2.16Z"/><path class="h" d="M47.96,62.67c.8,.97,1.31,1.55,1.77,2.16,1.22,1.61,.82,3.21-1.02,4.17-.43,.22-.83,.53-1.28,.64-2.47,.63-3.14,2.22-2.95,4.4,.09,.99,.08,2.02-.1,3.01-.33,1.8-2.15,2.47-3.75,1.46-2.23-1.41-3.23-3.51-2.57-5.88,.21-.76,.97-1.39,1.38-1.94-1.34-1.15-2.88-2.08-3.82-3.38-1.25-1.73,1.04-2.9,1.48-4.51-2.87-1.51-5.93-1.45-9-1.1-1.71,.2-3.42,.55-5.09,.97-1.84,.46-3.4-.06-4.95-.86-.43-.22-.94-.31-1.42-.42-.3-.07-.82,.01-.91-.14-.87-1.51-1.84-3-2.42-4.61-.23-.62,.4-1.57,.77-2.3,.43-.85,.91-1.71,1.55-2.43,.37-.42,1.06-.71,1.65-.84,3.47-.72,6.94-.98,10.44-.05,2,.53,3.11-.47,2.77-2.38-.47-2.63,1.04-4.52,3.94-4.96,.48-.07,.95-.17,2-.37-1.43-1.19-2.47-2.35-3.78-3.07-1.36-.76-2.53-1.3-3.2-2.89-.57-1.35-2.17-2.31-3.28-3.48-.57-.6-1.15-1.21-1.58-1.89-.62-1.01-.79-1.97,1.1-2.15-.44-.56-.78-.99-1.11-1.43-1.67-2.18-2.5-4.59-2.71-7.28-.14-1.87-1.3-3.77-1.08-5.56,.37-3.03-.7-5.93-.34-8.9,.09-.72,.51-1.4,.77-2.1l.55-.03c.68,.87,1.4,1.71,2.04,2.6,4.82,6.72,9.66,13.44,14.4,20.21,.61,.87,.92,2.03,1,3.08,.18,2.15,.08,4.32,.16,6.48,.04,.97,.26,1.94,.42,3.06l5.57-2.32-.71,1.79c1.75,.61,2.04-.64,2.35-1.57,.83-2.49,1.71-4.99,2.24-7.54,.86-4.13,4.12-6.22,7.64-8.03,1.94-1,3.87,.02,3.92,2.12,.1,3.5,2.49,5.26,5.29,6.83,2.37,1.33,2.69,1.86,1.27,4.05-2.18,3.36-3.75,6.87-4.35,10.76-.06,.42-.61,1.11-.88,1.09-.55-.04-1.35-.36-1.55-.78-1.29-2.69-2.45-5.43-3.63-8.16-.15-.35-.16-.75-.28-1.33-1.23,.52-2.57,.6-2.27,2.26,.04,.24-.3,.6-.56,.8-.46,.34-1.03,.56-1.49,.91-.31,.24-.68,.62-.66,.92,.01,.23,.56,.49,.92,.64,.34,.15,.77,.11,1.09,.26,.91,.44,1.79,.79,1.25,2.13-.56,1.38-.77,2.89-1.07,4.35-.19,.93,.93,1.55,2.03,1.45,3-.25,6.01-.44,9.01-.5,2.93-.06,4.22,2.26,5.53,4.04,.92,1.24,1,3.09,1.19,4.69,.18,1.5-1.5,3.08-3.13,3.41-2.18,.43-4.27,.05-6.41-.29-3.24-.52-6.46-1.54-9.8-.65-1.38,.36-2.71,.86-4.37,1.38Zm-8.38-1.32c-.01,.19,.02,.31-.03,.38-.77,1.09-1.53,2.19-2.33,3.26-1.01,1.36-.86,2.05,.8,3.43,1.34,1.12,2.21,1.16,3.44,.18,1.31-1.05,1.89-.99,2.94,.21,.23,.26,.78,.62,.92,.54,1.27-.7,2.77-1.29,3.64-2.33,.83-.98-.44-1.88-1.17-2.67-1.91-2.06-1.77-3.41,.52-5.02,1.76-1.24,1.87-1.82,.55-3.5,.61-.06,1.13-.15,1.65-.16,2.6-.04,5.21,0,7.81-.12,1.15-.05,2.29-.41,3.44-.6,.48-.08,.98-.06,1.47-.09l.15,.69c-.97,.27-1.93,.71-2.92,.78-2.7,.19-5.41,.19-8.11,.36-.45,.03-1.22,.51-1.24,.83-.11,1.35-.99,2.04-2.12,2.65-.41,.22-.73,.56-.97,.75,2.99-.28,5.97-.81,8.94-.77,2.57,.04,5.14,.68,7.69,1.13,1.41,.25,2.61,.05,3.84-.69,1.58-.95,1.71-2.72,1.54-3.81-.22-1.47-1.52-2.93-2.7-4.09-.82-.8-2.18-1.37-3.38-1.52-3.42-.44-6.89-.37-9.83,1.63-1.96,1.33-3.95,2.38-6.44,2.55-1.07,.07-2.09,.6-3.16,.75-1.31,.19-2.65,.23-3.97,.3-.44,.02-.89-.06-1.34-.1,.15-1.12-.81-.74-1.38-.86-1.67-.35-3.42-.52-5.01-1.06-1.8-.61-3.38-1.86-5.21-2.28-3.47-.81-7-1.53-10.31,.89-2.82,2.06-3.03,2.16-1.97,5.29,.09,.25,.33,.49,.55,.67,2.72,2.15,5.59,3.69,9.27,1.99,.14-.06,.32-.05,.48-.05,3.33,0,6.67,0,10.5,0-2.21-1.02-2.78-2.57-2.77-4.54-4.82,1.83-9.21,1.55-13.24-1.34,.52-.17,1.02-.12,1.47,.03,1.16,.38,2.27,.91,3.45,1.19,2.66,.62,5.27,.08,7.86-.53,1.51-.36,2.84-.12,3.81,1.37l-2.12-.24c.37,2.81,2.35,3.99,4.97,4.53ZM24.12,24.51l-.37,.26,4.82,7.34-.42,.34-2.65-1.07c.45,.64,.7,.92,.85,1.23,1.36,2.66,4.98,3.28,6.24,6.28,.59,1.4,3.04,2.13,4.83,3.28-.27-1.62-.44-3.07-.76-4.48-.71-3.18-1-6.54-2.36-9.47-2.5-5.38-5.63-10.5-8.55-15.71-1.11-1.99-2.35-3.91-3.59-5.96-.22,.27-.38,.38-.39,.5-.23,2.79,.19,5.48,1.39,8.07,.19,.4,.18,.94,.06,1.36-.04,.13-.78,.07-1.32,.11,.61,1.58,1.26,3.12,1.78,4.69,.49,1.48,1.98,2.64,1.83,4.79l-1.4-1.54Zm18.63,29.59c-1.02-1.45-1.93-2.54-2.61-3.74-.83-1.46-1.43-3.03-2.2-4.52-.61-1.19-2.17-1.73-3.23-1.2-1.98,.99-2.41,1.84-2,3.9,.21,1.08,.76,1.47,1.75,.7,1.21-.94,2.09-.5,3.07,.37,1.76,1.56,3.6,3.03,5.62,4.71,3.03-1.98,4.43-6.09,8.15-8.02l.37,.26-1.5,2.03c.59,.21,1.34,.69,1.63,.52,.62-.37,1.32-1.04,1.43-1.67,.22-1.25,.07-2.55,.07-3.77-2.44-.59-4.15,0-5.28,1.88-1.33,2.23-2.66,4.47-4,6.7-.3,.5-.66,.97-1.25,1.86Zm4.3-11.63l.35,.28c1.57-1.1,3.65-1.93,4.59-3.38,1.01-1.56,2.26-2.57,3.78-3.5,.3-.18,.76-.44,.77-.67,.05-2.72,.03-5.44,.03-8.3-2.26,1.14-4.38,2.4-5.17,4.94-1.08,3.48-1.53,7.2-4.29,10.07-.11,.11-.04,.37-.05,.55Zm-8.12,9.84l-2.66-2.29-1.91,1.98,4.57,.3Zm-4.19,.39c.82,1.53,1.89,1.87,3.67,1.08l-3.67-1.08Zm12.57-1.13h3.2l-1.6-1.72-1.61,1.72Zm-.1,2.92l2.71-1.53c-2.17-.61-2.69-.33-2.71,1.53Zm-5.98,18.44l-.63-.12c-.78,.64-1.22,1.35,.14,2.38l.49-2.26Z"/><path class="e" d="M39.58,61.34c-2.62-.54-4.6-1.72-4.97-4.53l2.12,.24c-.97-1.49-2.3-1.72-3.81-1.37-2.59,.61-5.2,1.15-7.86,.53-1.18-.27-2.29-.81-3.45-1.19-.45-.15-.95-.2-1.47-.03,4.03,2.88,8.42,3.16,13.24,1.34-.01,1.97,.56,3.52,2.77,4.54-3.83,0-7.16,0-10.5,0-.16,0-.34-.01-.48,.05-3.68,1.69-6.56,.16-9.27-1.99-.23-.18-.47-.42-.55-.67-1.06-3.13-.85-3.23,1.97-5.29,3.31-2.41,6.83-1.7,10.31-.89,1.83,.43,3.41,1.67,5.21,2.28,1.6,.54,3.34,.71,5.01,1.06,.56,.12,1.52-.25,1.38,.86,.45,.04,.9,.12,1.34,.1,1.33-.07,2.66-.1,3.97-.3,1.07-.16,2.09-.68,3.16-.75,2.49-.17,4.48-1.22,6.44-2.55,2.94-2,6.4-2.06,9.83-1.63,1.2,.15,2.57,.72,3.38,1.52,1.19,1.16,2.48,2.62,2.7,4.09,.16,1.09,.04,2.85-1.54,3.81-1.23,.74-2.43,.93-3.84,.69-2.55-.45-5.12-1.09-7.69-1.13-2.97-.04-5.95,.49-8.94,.77,.24-.19,.57-.53,.97-.75,1.12-.61,2-1.3,2.12-2.65,.03-.32,.79-.8,1.24-.83,2.7-.17,5.42-.17,8.11-.36,.99-.07,1.95-.51,2.92-.78l-.15-.69c-.49,.03-.99,.01-1.47,.09-1.15,.18-2.28,.54-3.44,.6-2.6,.11-5.2,.08-7.81,.12-.52,0-1.04,.1-1.65,.16,1.32,1.68,1.2,2.26-.55,3.5-2.29,1.61-2.43,2.96-.52,5.02,.73,.79,2,1.69,1.17,2.67-.87,1.03-2.37,1.62-3.64,2.33-.15,.08-.69-.29-.92-.54-1.06-1.2-1.63-1.26-2.94-.21-1.23,.98-2.1,.94-3.44-.18-1.66-1.38-1.81-2.07-.8-3.43,.8-1.07,1.56-2.17,2.33-3.26,.05-.07,.02-.19,.03-.38Zm6.27-1.28l.72-.42c-.52-.22-1.02-.55-1.56-.63-1.45-.21-2.93-.37-4.4-.43-.35-.01-.72,.42-1.08,.65,.38,.18,.75,.5,1.15,.53,1.72,.14,3.45,.2,5.18,.3Zm.99-2.83c-2.41-1.19-5.36-1.08-7.09,.56,2.45,0,4.54,.01,6.64-.02,.15,0,.3-.35,.46-.54Zm-1.1,4.7c-1.76-1.31-3.59-1.29-5.2,0h5.2Z"/><path class="g" d="M24.12,24.51l1.4,1.54c.15-2.16-1.34-3.31-1.83-4.79-.52-1.57-1.18-3.11-1.78-4.69,.54-.04,1.28,.01,1.32-.11,.12-.42,.13-.96-.06-1.36-1.21-2.59-1.62-5.28-1.39-8.07,0-.12,.17-.23,.39-.5,1.24,2.05,2.48,3.97,3.59,5.96,2.91,5.21,6.05,10.33,8.55,15.71,1.36,2.93,1.65,6.29,2.36,9.47,.32,1.42,.49,2.86,.76,4.48-1.79-1.15-4.24-1.88-4.83-3.28-1.26-3-4.88-3.62-6.24-6.28-.16-.31-.4-.58-.85-1.23l2.65,1.07,.42-.34-4.82-7.34,.37-.26Z"/><path class="f" d="M42.76,54.1c.6-.88,.95-1.36,1.25-1.86,1.34-2.23,2.67-4.46,4-6.7,1.13-1.89,2.84-2.47,5.28-1.88,0,1.22,.16,2.53-.07,3.77-.11,.63-.81,1.29-1.43,1.67-.29,.17-1.04-.31-1.63-.52l1.5-2.03-.37-.26c-3.72,1.93-5.11,6.04-8.15,8.02-2.01-1.68-3.86-3.15-5.62-4.71-.98-.87-1.86-1.31-3.07-.37-.99,.77-1.54,.37-1.75-.7-.41-2.06,.02-2.91,2-3.9,1.06-.53,2.62,.01,3.23,1.2,.77,1.49,1.37,3.06,2.2,4.52,.68,1.2,1.59,2.29,2.61,3.74Z"/><path class="g" d="M47.06,42.48c.01-.19-.06-.44,.05-.55,2.76-2.87,3.21-6.59,4.29-10.07,.79-2.54,2.91-3.8,5.17-4.94,0,2.86,.02,5.58-.03,8.3,0,.23-.47,.49-.77,.67-1.52,.93-2.77,1.94-3.78,3.5-.94,1.45-3.01,2.28-4.59,3.38l-.35-.28Z"/><path class="f" d="M38.93,52.31l-4.57-.3,1.91-1.98,2.66,2.29Z"/><path class="e" d="M34.75,52.71l3.67,1.08c-1.78,.8-2.85,.45-3.67-1.08Z"/><path class="f" d="M47.31,51.58l1.61-1.72,1.6,1.72h-3.2Z"/><path class="e" d="M47.21,54.5c.02-1.86,.54-2.14,2.71-1.53l-2.71,1.53Z"/><path class="e" d="M41.24,72.94l-.49,2.26c-1.35-1.03-.92-1.74-.14-2.38l.63,.12Z"/><path class="h" d="M45.85,60.06c-1.73-.09-3.46-.15-5.18-.3-.4-.03-.77-.35-1.15-.53,.36-.23,.73-.67,1.08-.65,1.47,.06,2.94,.22,4.4,.43,.54,.08,1.04,.42,1.56,.63l-.72,.42Z"/><path class="h" d="M46.84,57.23c-.16,.2-.3,.54-.46,.54-2.09,.04-4.18,.02-6.64,.02,1.73-1.64,4.68-1.75,7.09-.56Z"/><path class="h" d="M45.74,61.93h-5.2c1.61-1.29,3.44-1.31,5.2,0Z"/></g></g></g></g></svg>