<?xml version="1.0" encoding="UTF-8"?><svg xmlns="http://www.w3.org/2000/svg" viewBox="0 0 94.57 41.9"><g id="a"/><g id="b"><g id="c"><g><path d="M16.08,9.18h1.77l7.75,17.74-2.57-.02-2.31-5.22-7.5-.05-2.23,5.19-2.58-.02,7.67-17.62Zm3.62,10.25l-2.79-6.38-2.67,6.35,5.46,.04Z"/><path d="M41.24,9.45l2.35,.02-.12,17.57-2.53-.02,.1-13.67-5.45,6.75h-.47l-5.42-6.83-.1,13.67-2.52-.02,.12-17.57,2.38,.02,5.79,7.26,5.85-7.18Z"/><path d="M52.43,27.1l-5.95-.04,.12-17.57,4.6,.03c1.45,.01,2.58,.21,3.39,.61s1.43,.94,1.85,1.62c.42,.69,.63,1.48,.62,2.38-.01,1.73-.91,2.96-2.7,3.69,1.28,.25,2.3,.79,3.05,1.61,.75,.82,1.13,1.79,1.12,2.93,0,.9-.24,1.7-.71,2.4s-1.15,1.27-2.04,1.71-2.01,.65-3.36,.64Zm-1.16-15.34l-2.16-.02-.04,5.28h1.67c1.34,.02,2.3-.23,2.87-.74,.57-.51,.86-1.17,.86-1.98,.01-1.69-1.06-2.54-3.2-2.55Zm.14,7.52l-2.35-.02-.04,5.57,2.48,.02c1.37,0,2.31-.09,2.8-.3s.89-.54,1.19-.99,.45-.94,.46-1.46-.15-1.03-.46-1.47c-.31-.45-.76-.78-1.33-1-.58-.22-1.49-.34-2.74-.35Z"/><path d="M60.98,9.59l9.96,.07-.02,2.24-7.45-.05-.04,5.36,7.19,.05-.02,2.25-7.19-.05-.04,5.46,7.68,.05-.02,2.24-10.2-.07,.12-17.54Z"/><path d="M74.32,27.25l.12-17.57,4.4,.03c1.78,.01,3.19,.46,4.22,1.35,1.04,.89,1.55,2.08,1.54,3.58,0,1.02-.27,1.91-.79,2.65-.52,.74-1.11,1.29-2.07,1.81l4.39,8.23-2.99-.02-3.85-7.67s-.93,0-1.76-.01h-.65l-.05,7.64-2.52-.02Zm3.38-15.41h-.75l-.04,5.54h.96c1.27,.02,2.15-.09,2.62-.3,.48-.21,.85-.54,1.11-.98s.4-.94,.41-1.5-.14-1.06-.43-1.51c-.29-.45-.7-.77-1.23-.96-.53-.19-1.41-.29-2.65-.3Z"/></g><g><path d="M27.73,30.54l-.02,2.66h-.73v-2.04c.02-.41-.04-.69-.14-.85-.11-.16-.3-.24-.57-.25-.15,0-.29,.03-.42,.1-.13,.07-.27,.19-.43,.36l-.02,2.66h-.72l.03-3.67h.72v.49c.37-.37,.73-.55,1.08-.55,.46,0,.82,.23,1.07,.67,.39-.44,.8-.66,1.22-.66,.36,0,.65,.13,.88,.4,.23,.26,.34,.66,.34,1.19l-.02,2.16h-.72l.02-2.18c0-.31-.06-.54-.18-.7-.12-.16-.3-.24-.54-.25-.3,0-.58,.15-.84,.45Z"/><path d="M32.88,29.56c.56,0,1.02,.19,1.39,.55,.37,.36,.55,.82,.54,1.36s-.19,.97-.57,1.31-.85,.52-1.42,.51-1.01-.18-1.37-.54c-.37-.36-.55-.8-.54-1.33s.19-.98,.57-1.34c.38-.35,.84-.53,1.41-.53Zm-.04,.65c-.35,0-.63,.11-.86,.34s-.34,.52-.34,.87,.11,.64,.34,.86c.23,.22,.52,.34,.88,.34s.65-.11,.88-.33c.23-.22,.34-.51,.35-.86s-.11-.64-.35-.87c-.23-.23-.53-.35-.89-.35Z"/><path d="M37.98,29.61h.79l-1.64,3.72h-.25l-1.63-3.74h.79l.97,2.27,.97-2.25Z"/><path d="M39.79,28.08c.12,0,.22,.04,.31,.13s.13,.18,.13,.3-.04,.22-.13,.3-.19,.13-.31,.13c-.11,0-.21-.04-.29-.13-.08-.09-.13-.19-.13-.3s.04-.21,.13-.3c.09-.09,.18-.13,.3-.13Zm-.37,1.54h.72l-.03,3.67h-.72l.03-3.67Z"/><path d="M42.03,29.63v.47c.32-.36,.69-.53,1.1-.53,.23,0,.44,.06,.64,.18s.34,.28,.44,.49,.15,.53,.15,.98v2.09h-.74v-2.09c.02-.37-.04-.64-.15-.8s-.3-.24-.57-.25c-.34,0-.63,.17-.88,.51l-.02,2.62h-.74l.03-3.67h.74Z"/><path d="M45.29,30.92c0-.39,.15-.7,.43-.92,.29-.22,.68-.34,1.17-.33h1.51v.58h-.74c.14,.14,.24,.28,.3,.4s.08,.26,.08,.41c0,.19-.06,.38-.17,.56-.11,.18-.25,.32-.42,.42-.17,.1-.45,.17-.84,.23-.27,.04-.41,.13-.41,.28,0,.09,.05,.16,.15,.21,.1,.06,.29,.11,.55,.17,.45,.1,.74,.18,.86,.24s.24,.14,.35,.24c.17,.18,.26,.4,.26,.66,0,.35-.16,.62-.47,.83-.31,.2-.72,.31-1.24,.3s-.94-.11-1.25-.32c-.31-.21-.46-.49-.46-.84,0-.5,.31-.81,.93-.95-.24-.16-.36-.31-.36-.47,0-.12,.05-.22,.16-.32s.25-.16,.43-.21c-.54-.24-.8-.63-.8-1.16Zm1.17,2.58c-.24,0-.44,.05-.6,.15-.16,.1-.23,.23-.24,.4,0,.38,.34,.57,1.02,.57,.32,0,.57-.04,.75-.14,.18-.09,.27-.23,.27-.4s-.11-.31-.33-.42c-.22-.11-.51-.16-.86-.17Zm.19-3.2c-.2,0-.36,.06-.5,.2s-.21,.29-.21,.48,.07,.35,.2,.47c.13,.12,.31,.19,.51,.19s.38-.06,.51-.19,.21-.28,.21-.47-.07-.35-.2-.48-.31-.19-.52-.19Z"/><path d="M54.44,30.73l-.02,2.66h-.73v-2.04c.02-.41-.04-.69-.14-.85s-.3-.24-.57-.25c-.15,0-.29,.03-.42,.1s-.27,.19-.43,.36l-.02,2.66h-.72l.03-3.67h.72v.49c.37-.37,.73-.55,1.08-.55,.46,0,.82,.23,1.07,.67,.39-.44,.8-.66,1.22-.66,.36,0,.65,.13,.88,.4s.34,.66,.34,1.19l-.02,2.16h-.72l.02-2.18c0-.31-.06-.54-.18-.7-.12-.16-.3-.24-.54-.25-.3,0-.58,.15-.84,.45Z"/><path d="M60.15,33.43v-.47c-.15,.17-.33,.3-.53,.39s-.4,.14-.59,.14c-.23,0-.44-.06-.64-.18-.19-.12-.34-.27-.44-.47-.1-.2-.15-.53-.14-.99v-2.1h.74v2.09c-.02,.38,.04,.65,.15,.81,.11,.15,.3,.23,.58,.23,.35,0,.64-.16,.88-.5l.02-2.62h.72l-.03,3.67h-.72Z"/><path d="M61.82,33.17v-.78c.21,.14,.42,.26,.63,.35,.21,.09,.39,.14,.54,.14s.28-.03,.39-.11c.11-.07,.16-.16,.16-.27s-.03-.19-.1-.27-.22-.17-.45-.31c-.47-.26-.77-.49-.91-.67-.14-.19-.21-.39-.21-.6,0-.28,.11-.51,.33-.69,.22-.18,.5-.26,.85-.26s.73,.11,1.1,.31v.72c-.43-.26-.78-.4-1.06-.4-.14,0-.25,.03-.34,.09-.09,.06-.13,.14-.13,.24,0,.09,.04,.17,.12,.24,.08,.08,.21,.17,.41,.28l.26,.15c.61,.35,.91,.73,.91,1.15,0,.3-.12,.55-.36,.74-.24,.19-.54,.28-.91,.28-.22,0-.41-.03-.58-.07-.17-.05-.38-.13-.64-.26Z"/><path d="M65.66,28.26c.12,0,.22,.04,.31,.13,.08,.08,.13,.18,.13,.3s-.04,.22-.13,.3c-.09,.08-.19,.13-.31,.13-.11,0-.21-.04-.29-.13-.08-.09-.13-.19-.13-.3s.04-.21,.13-.3c.09-.09,.18-.13,.3-.13Zm-.37,1.54h.72l-.03,3.67h-.72l.03-3.67Z"/><path d="M69.89,32.64v.72c-.37,.13-.73,.2-1.07,.2-.57,0-1.03-.18-1.37-.52-.34-.34-.51-.8-.5-1.37s.17-1.04,.51-1.39c.33-.35,.77-.52,1.31-.52,.19,0,.36,.02,.51,.06,.15,.04,.33,.11,.55,.21v.77c-.37-.24-.71-.36-1.02-.36s-.6,.11-.81,.34c-.21,.23-.32,.52-.32,.88,0,.37,.11,.67,.33,.89,.23,.22,.53,.33,.92,.34,.28,0,.6-.08,.96-.24Z"/></g><path d="M93.94,1.28l-.28,40L.63,40.63,.91,.63l93.03,.65m.63-.62L.29,0l-.29,41.25,94.28,.66,.29-41.25h0Z"/></g></g></svg>