<?xml version="1.0" encoding="UTF-8"?><svg xmlns="http://www.w3.org/2000/svg" viewBox="0 0 270 115.55"><defs><style>.d,.e{fill:#fff;}.e{font-family:Milenia, Milenia;font-size:65px;}</style></defs><g id="a"/><g id="b"><g id="c"><text class="e" transform="translate(46.83 76.33)"><tspan x="0" y="0">Earbuds</tspan></text><path class="d" d="M251.72,63.22c-.84,1.08-3.08,.35-4.15,.12-2.13-.45-4.29-1.02-6.48-1.01-1.8,.01-3.81,.52-4.77,2.19-.76,1.32-.63,2.98-.61,4.45,.07,4.88,2.2,9.56,1.93,14.46-.29,5.21-2.73,9.81-6.33,13.5-5.92,6.06-14.13,9.96-22.02,12.8-11.55,4.16-24.14,4.75-36.22,2.95-8.64-1.29-17.48-3.55-25.22-7.65-3.33-1.76-6.4-3.95-9.64-5.86-3.82-2.25-7.91-3.87-12.2-4.97-5.27-1.35-10.67-1.98-16.08-1.23-4.05,.56-7.92,1.89-11.9,2.79-4.51,1.02-9.04,1.15-13.58,.21-6.29-1.29-11.98-4.42-18.19-5.96-2.88-.72-5.91-1.06-8.84-.45s-5.27,2.37-7.9,3.71c-.5,.25-1.41,.78-1.95,.35-.67-.54,.5-1.14-.25,.9,.13-.34,.16-.75,.28-1.11,.56-1.69,1.51-3.23,2.04-4.92,.16-.5,.19-.96,.19-1.48,0-.38,.19-1.36-.1-1.7-.6-.71-2.39,1.09-2.81,1.41-4.34,3.34-9.36,5.59-14.91,5.77-1.07,.04-3.89,.18-4.02-1.39v1.8c.16-1.7,2.26-3.22,3.42-4.24,1.89-1.65,3.9-3.15,5.76-4.84,.65-.59,1.37-1.22,1.82-1.98,.38-.65,.29-1.32,.28-2.06,0-.7,0-1.1-.77-1.29-1-.25-2.19,.03-3.18,.19-.8,.13-6.42,1.71-6.66,.44v1.87c.02-.63,.94-1.22,1.37-1.56,.88-.69,1.81-1.32,2.72-1.98,1.39-1.02,2.99-2,2.99-3.85,0-.68,.17-1.46-.42-1.92-.81-.62-2.18-.66-3.14-.75-3.75-.33-7.54-.11-11.3-.12-2.61,0-4.76-.96-5.46-3.74-.04-.16-.06-.33-.1-.48-.24-.77,.26,.36-.04,.28-.05-.01,.18-.86,.21-.94,.23-.68,.6-1.27,1.15-1.73,1.01-.83,2.38-1.12,3.64-1.38,2.49-.52,5.42-.87,7.04-3.09,1.11-1.52,1.18-3.4,1.18-5.21,0-5.17-1.73-10.08-2.88-15.07-.67-2.92-1.4-6.07-1.26-9.08s.91-5.8,2.34-8.36c4.91-8.78,15.54-13.34,24.67-16.25,7.72-2.46,15.94-4.21,24.07-3.81,9.97,.48,19.04,4.45,28.16,8.15,5.22,2.12,10.51,4.08,15.95,5.57,6.9,1.89,13.97,3.04,21.11,3.53,14.86,1.03,29.8-.92,44.54-2.63,6.83-.79,13.67-1.61,20.54-2.02,5.3-.32,10.65-.41,15.89,.5,2.99,.52,5.95,1.4,8.48,3.11,1.46,.99,2.77,2.22,3.62,3.78,.69,1.25,1.24,2.43,2.33,3.39,4.23,3.72,10.45,2.71,15.62,2.89,1.02,.03,3.21,.02,3.32,1.44v-.95c0-1.23-.08-.32-.33,.12-.22,.39-.5,.73-.8,1.06-.74,.83-1.61,1.56-2.47,2.26-2.18,1.76-4.51,3.33-6.79,4.95-1.71,1.22-3.76,2.45-5.08,4.12-.49,.62-.47,1.09-.47,1.87s-.15,1.38,.74,1.62c1.38,.36,3.07-.07,4.46-.21,.6-.06,3.02-.52,3.2,.45v-1.82c-.21,1.24-2.57,2.33-3.48,2.93-1.67,1.1-3.65,2.22-4.83,3.89-.39,.55-.54,1.07-.56,1.74s-.15,1.57,.14,2.19c.34,.76,1.29,1.07,2.01,1.35,1.37,.54,2.73,1.07,4.02,1.81,1.73,.99,3.32,2.23,4.73,3.64,1,1,2.25,2.28,2.44,3.75v-1.71c-.03,.2-.07,.32-.16,.49-.27,.5,.26,1.42,0,1.9,.41-.76,.3-2.3,.05-3.11-.61-2-2.7-3.71-4.27-4.96-1.87-1.5-3.94-2.6-6.17-3.47-1.05-.41-2.62-.78-2.77-2.12v1.75c.17-2.09,2.98-3.66,4.52-4.69,.98-.66,1.99-1.28,2.95-1.99,.53-.39,1.23-.85,1.39-1.52,.11-.47,.2-1.79-.1-2.19-.46-.61-1.99-.32-2.6-.27-.85,.07-5.52,1.08-5.69-.35v1.84c.11-1.19,1.84-2.28,2.67-2.93,1.84-1.44,3.78-2.75,5.69-4.11s3.73-2.65,5.41-4.19c1.02-.94,2.13-1.98,2.16-3.44,.01-.62,.17-1.53-.14-2.1-.34-.62-1.21-.77-1.85-.86-2.5-.35-5.1-.02-7.62-.12-2.97-.11-6.15-.54-8.63-2.32-1.28-.91-2.07-2.08-2.78-3.46-.85-1.65-2.05-2.97-3.56-4.05-4.72-3.38-11.11-3.95-16.75-4.04-6.8-.11-13.61,.58-20.36,1.31-15.78,1.7-31.63,4.17-47.55,3.79-7.76-.18-15.53-1.14-23.08-2.96-6.08-1.46-11.99-3.53-17.79-5.85C95.04,4.79,85.34,.35,74.57,.02c-8.72-.27-17.66,1.83-25.85,4.73-9.69,3.43-21.55,9.35-23.94,20.37-1.25,5.74-.25,11.9,1.12,17.51,.71,2.91,1.55,5.79,2.11,8.73,.12,.65,.23,1.3,.31,1.96,.04,.32,.06,.65,.1,.97,.11,1.13,.13-.87,0,.2s-.32,2.04-.87,2.95c-1.49,2.49-4.55,2.93-7.14,3.46-1.34,.27-2.84,.57-3.9,1.5s-1.29,2.21-1.31,3.51c-.04,2.54,.31,5.55,3.1,6.53,1.15,.4,2.46,.29,3.65,.28,2.19-.03,4.39-.05,6.58-.02,1.65,.02,3.33,.04,4.97,.31,.69,.12,2.17,.32,2.21,1.27v-1.87c-.16,1.65-2.82,3.05-4,3.89s-3.06,1.73-3.08,3.31c0,.56-.24,1.46,.32,1.78,.6,.34,1.75,.03,2.37-.07,2.17-.33,4.47-1.12,6.68-.97,.29,.02,.65,.04,.89,.2,.09,.06,.18,.2,.26,.24,.03,.01,.02,.09,.05,.1,.39,.2,.32-1.88,0-1.47-.37,.48-.6,1.04-1.04,1.51-1.42,1.51-3.12,2.78-4.72,4.1-2.46,2.02-6.18,4.34-5.48,8.03,.4,2.12,5.02,1.32,6.38,1.12,3.6-.52,7.02-1.77,10.06-3.76,1.08-.71,2.1-1.5,3.13-2.29,.4-.31,1.24-1.16,1.82-1.08,.08,.01,.47,.27,.39,.29-.22,.05,.32-1.98-.05-1.08-.09,.22-.14,.47-.22,.7-.38,1.04-.88,2.03-1.31,3.04-.66,1.53-1.22,3.27-.89,4.97,.41,2.09,5.11-1.48,5.93-1.92,7.39-3.93,15.2-.65,22.39,2.08,6.22,2.36,12.54,4.07,19.23,3.13,5.07-.71,9.87-2.63,14.93-3.36,6.65-.95,13.43,.15,19.77,2.24,4.73,1.56,8.88,4.03,13.05,6.69,4.9,3.12,10.03,5.6,15.59,7.34,4.76,1.49,9.66,2.63,14.59,3.38,6.93,1.06,14,1.33,20.98,.6s14.22-2.75,20.91-5.68c9.96-4.35,21.6-11.26,22.9-23.17,.29-2.65,.22-5.42-.09-8.06-.37-3.06-1.2-6.03-1.6-9.09-.05-.38-.07-.77-.12-1.15-.1-.74-.18,1.33,.03,.21,.1-.52,.18-1.02,.41-1.51,.45-.95,1.28-1.62,2.25-2,2.48-.98,5.42-.25,7.92,.29,1.24,.27,4.38,1.45,5.38,.15,.31-.4-.3-1.51,0-1.9Z"/></g></g></svg>